<?xml version="1.0" encoding="UTF-8" standalone="no"?>
<!DOCTYPE svg PUBLIC "-//W3C//DTD SVG 1.1//EN" "http://www.w3.org/Graphics/SVG/1.1/DTD/svg11.dtd">
<!-- Generated by Microsoft Visio, SVG Export DataFlowExampleSetup.svg Page-1 -->
<svg xmlns="http://www.w3.org/2000/svg" xmlns:xlink="http://www.w3.org/1999/xlink" xmlns:ev="http://www.w3.org/2001/xml-events"
		xmlns:v="http://schemas.microsoft.com/visio/2003/SVGExtensions/" width="9.33579in" height="3.56597in"
		viewBox="0 0 672.177 256.75" xml:space="preserve" color-interpolation-filters="sRGB" class="st18">
	<v:documentProperties v:langID="1033" v:viewMarkup="false">
		<v:userDefs>
			<v:ud v:nameU="msvNoAutoConnect" v:prompt="" v:val="VT0(0):26"/>
		</v:userDefs>
	</v:documentProperties>

	<style type="text/css">
	<![CDATA[
		.st1 {fill:#73ae42;stroke:#ffffff;stroke-linecap:round;stroke-linejoin:round;stroke-width:0.5}
		.st2 {fill:#ffffff;font-family:Calibri;font-size:1.00001em}
		.st3 {font-size:1em}
		.st4 {fill:#ffffff;stroke:#ffffff;stroke-linecap:butt;stroke-width:0.75}
		.st5 {fill:#83c558;stroke:#ffffff;stroke-linecap:round;stroke-linejoin:round;stroke-width:0.5}
		.st6 {fill:#ffffff;stroke:none;stroke-linecap:butt;stroke-width:4}
		.st7 {fill:#288e15;stroke:none;stroke-linecap:butt;stroke-width:4}
		.st8 {fill:#000000;stroke:none;stroke-linecap:butt;stroke-width:3.7029}
		.st9 {fill:#83c558;stroke:none;stroke-linecap:butt;stroke-width:4}
		.st10 {fill:#3fa523;stroke:none;stroke-linecap:butt;stroke-width:4}
		.st11 {fill:#33b182;stroke:none;stroke-linecap:butt;stroke-width:3.67575}
		.st12 {fill:#33b182;stroke:none;stroke-linecap:butt;stroke-width:2.32988}
		.st13 {fill:#0093c5;stroke:none;stroke-linecap:butt;stroke-width:4}
		.st14 {fill:#fca03a;stroke:none;stroke-linecap:butt;stroke-width:4}
		.st15 {fill:#e44242;stroke:none;stroke-linecap:butt;stroke-width:4}
		.st16 {fill:#4f4f4a;stroke:none;stroke-linecap:butt;stroke-width:4}
		.st17 {fill:#feffff;font-family:Calibri;font-size:1.00001em}
		.st18 {fill:none;fill-rule:evenodd;font-size:12px;overflow:visible;stroke-linecap:square;stroke-miterlimit:3}
	]]>
	</style>

	<g v:mID="0" v:index="1" v:groupContext="foregroundPage">
		<v:userDefs>
			<v:ud v:nameU="msvThemeOrder" v:val="VT0(0):26"/>
		</v:userDefs>
		<title>Page-1</title>
		<v:pageProperties v:drawingScale="1" v:pageScale="1" v:drawingUnits="0" v:shadowOffsetX="9" v:shadowOffsetY="-9"/>
		<g id="group1-1" transform="translate(306,-166.5)" v:mID="1" v:groupContext="group">
			<v:custProps>
				<v:cp v:nameU="AssetNumber" v:lbl="Asset Number" v:prompt="" v:type="0" v:format="" v:sortKey="Asset"
						v:invis="false" v:ask="false" v:langID="1033" v:cal="0"/>
				<v:cp v:nameU="SerialNumber" v:lbl="Serial Number" v:prompt="" v:type="0" v:format="" v:sortKey="Asset"
						v:invis="false" v:ask="false" v:langID="1033" v:cal="0"/>
				<v:cp v:nameU="Location" v:lbl="Location" v:prompt="" v:type="0" v:format="" v:sortKey="Asset" v:invis="false"
						v:ask="false" v:langID="1033" v:cal="0"/>
				<v:cp v:nameU="Building" v:lbl="Building" v:prompt="" v:type="0" v:format="" v:sortKey="Asset" v:invis="false"
						v:ask="false" v:langID="1033" v:cal="0"/>
				<v:cp v:nameU="Room" v:lbl="Room" v:prompt="" v:type="0" v:format="" v:sortKey="Asset" v:invis="false"
						v:ask="false" v:langID="1033" v:cal="0"/>
				<v:cp v:nameU="Manufacturer" v:lbl="Manufacturer" v:prompt="" v:type="0" v:format="" v:sortKey="Equipment"
						v:invis="false" v:ask="false" v:langID="1033" v:cal="0"/>
				<v:cp v:nameU="ProductNumber" v:lbl="Product Number" v:prompt="" v:type="0" v:format="" v:sortKey="Equipment"
						v:invis="false" v:ask="false" v:langID="1033" v:cal="0"/>
				<v:cp v:nameU="PartNumber" v:lbl="Part Number" v:prompt="" v:type="0" v:format="" v:sortKey="Equipment"
						v:invis="false" v:ask="false" v:langID="1033" v:cal="0"/>
				<v:cp v:nameU="ProductDescription" v:lbl="Product Description" v:prompt="" v:type="0" v:format=""
						v:sortKey="Equipment" v:invis="false" v:ask="false" v:langID="1033" v:cal="0"/>
				<v:cp v:nameU="NetworkName" v:lbl="Network Name" v:prompt="" v:type="0" v:format="" v:sortKey="Network"
						v:invis="false" v:ask="false" v:langID="1033" v:cal="0"/>
				<v:cp v:nameU="IPAddress" v:lbl="IP Address" v:prompt="" v:type="0" v:format="" v:sortKey="Network" v:invis="false"
						v:ask="false" v:langID="1033" v:cal="0"/>
				<v:cp v:nameU="SubnetMask" v:lbl="Subnet Mask" v:prompt="" v:type="0" v:format="" v:sortKey="Network"
						v:invis="false" v:ask="false" v:langID="1033" v:cal="0"/>
				<v:cp v:nameU="AdminInterface" v:lbl="Administrative Interface" v:prompt="" v:type="0" v:format=""
						v:sortKey="Network" v:invis="false" v:ask="false" v:langID="1033" v:cal="0"/>
				<v:cp v:nameU="NumberofPorts" v:lbl="Number of Ports" v:prompt="" v:type="0" v:format="" v:sortKey="Network"
						v:invis="false" v:ask="false" v:langID="1033" v:cal="0"/>
				<v:cp v:nameU="CommunityString" v:lbl="Community String" v:prompt="" v:type="0" v:format="" v:sortKey="Network"
						v:invis="false" v:ask="false" v:langID="1033" v:cal="0"/>
				<v:cp v:nameU="NetworkDescription" v:lbl="Network Description" v:prompt="" v:type="0" v:format=""
						v:sortKey="Network" v:invis="false" v:ask="false" v:langID="1033" v:cal="0"/>
				<v:cp v:nameU="MACAddress" v:lbl="MAC Address" v:prompt="" v:type="0" v:format="" v:sortKey="Network"
						v:invis="false" v:ask="false" v:langID="1033" v:cal="0"/>
				<v:cp v:nameU="ShapeClass" v:lbl="ShapeClass" v:prompt="" v:type="0" v:format="" v:sortKey="" v:invis="true"
						v:ask="false" v:langID="1033" v:cal="0" v:val="VT4(Connectivity)"/>
				<v:cp v:nameU="ShapeType" v:lbl="ShapeType" v:prompt="" v:type="0" v:format="" v:sortKey="" v:invis="true"
						v:ask="false" v:langID="1033" v:cal="0" v:val="VT4(Conceptual)"/>
				<v:cp v:nameU="SubShapeType" v:lbl="SubShapeType" v:prompt="" v:type="0" v:format="" v:sortKey="" v:invis="true"
						v:ask="false" v:langID="1033" v:cal="0" v:val="VT4(Database)"/>
			</v:custProps>
			<v:userDefs>
				<v:ud v:nameU="visVersion" v:prompt="" v:val="VT0(15):26"/>
				<v:ud v:nameU="ShapeClass" v:prompt="" v:val="VT0(5):26"/>
				<v:ud v:nameU="SolSH" v:prompt="" v:val="VT15({BF0433D9-CD73-4EB5-8390-8653BE590246}):41"/>
				<v:ud v:nameU="visLegendShape" v:prompt="" v:val="VT0(2):26"/>
			</v:userDefs>
			<title>Database</title>
			<desc>Controls file</desc>
			<g id="shape2-2" v:mID="2" v:groupContext="shape" transform="translate(3.45451,0)">
				<title>Sheet.2</title>
				<path d="M0 195.73 L0 245.89 A32.5455 10.8614 -180 1 0 65.09 245.89 L65.09 195.61 A32.5455 10.8614 0 0 1 0 195.73
							 ZM65.09 195.61 A32.5455 10.8614 -180 1 0 0 195.61 A32.5455 10.8614 -180 1 0 65.09 195.61 Z"
						class="st1"/>
			</g>
			<g id="shape1-4" v:mID="1" v:groupContext="groupContent">
				<v:textBlock v:margins="rect(4,4,4,4)"/>
				<v:textRect cx="36" cy="229.75" width="69.59" height="22.4037"/>
				<text x="6.57" y="233.35" class="st2" v:langID="1031"><v:paragraph v:horizAlign="1"/><v:tabList/>Controls file</text>			</g>
		</g>
		<g id="shape3-6" v:mID="3" v:groupContext="shape" transform="translate(297,439.25) rotate(180)">
			<title>Simple Arrow</title>
			<desc>Request Name / Command / AuthKey</desc>
			<v:userDefs>
				<v:ud v:nameU="visVersion" v:val="VT0(15):26"/>
				<v:ud v:nameU="ArrowType" v:prompt="" v:val="VT0(2):26"/>
			</v:userDefs>
			<v:textBlock v:margins="rect(4,4,4,4)"/>
			<v:textRect cx="85.5" cy="256.75" width="171" height="0" transform="rotate(180)"/>
			<path d="M0 256.75 L54 211.75 L54 234.25 L171 234.25 L171 256.75 L171 279.25 L54 279.25 L54 301.75 L0 256.75 Z"
					class="st1"/>
			<text x="-105.39" y="-260.35" transform="rotate(180)" class="st2" v:langID="1031"><v:paragraph v:horizAlign="1"/><v:tabList/>Request<v:newlineChar/><tspan
						x="-155.82" dy="1.2em" class="st3">Name / Command / AuthKey</tspan></text>		</g>
		<g id="shape4-10" v:mID="4" v:groupContext="shape" transform="translate(549,439.25) rotate(180)">
			<title>Simple Arrow.114</title>
			<desc>Request Control / User / Password</desc>
			<v:userDefs>
				<v:ud v:nameU="visVersion" v:val="VT0(15):26"/>
				<v:ud v:nameU="ArrowType" v:prompt="" v:val="VT0(2):26"/>
			</v:userDefs>
			<v:textBlock v:margins="rect(4,4,4,4)"/>
			<v:textRect cx="81" cy="256.75" width="162" height="0" transform="rotate(180)"/>
			<path d="M0 256.75 L54 211.75 L54 234.25 L162 234.25 L162 256.75 L162 279.25 L54 279.25 L54 301.75 L0 256.75 Z"
					class="st1"/>
			<text x="-100.89" y="-260.35" transform="rotate(180)" class="st2" v:langID="1031"><v:paragraph v:horizAlign="1"/><v:tabList/>Request<v:newlineChar/><tspan
						x="-143.86" dy="1.2em" class="st3">Control / User / Password</tspan></text>		</g>
		<g id="shape5-14" v:mID="5" v:groupContext="shape" transform="translate(132.75,-79.74)">
			<title>Lock.119</title>
			<v:userDefs>
				<v:ud v:nameU="msvShapeCategories" v:prompt="" v:val="VT4(Icon)"/>
				<v:ud v:nameU="visVersion" v:prompt="" v:val="VT0(15):26"/>
			</v:userDefs>
			<path d="M5.49 252.34 C5.49 252.67 5.29 252.95 5.01 253.08 L5.22 254.77 L4.14 254.77 L4.35 253.08 C4.07 252.95 3.87 252.67
						 3.87 252.34 C3.87 251.89 4.23 251.53 4.68 251.53 C5.13 251.53 5.49 251.89 5.49 252.34 ZM8.64 255.67 L8.64
						 250.63 C8.64 250.43 8.48 250.27 8.28 250.27 L1.08 250.27 C0.88 250.27 0.72 250.43 0.72 250.63 L0.72 255.67
						 C0.72 255.87 0.88 256.03 1.08 256.03 L8.28 256.03 C8.48 256.03 8.64 255.87 8.64 255.67 ZM5.76 248.23 C5.73
						 247.77 5.25 247.39 4.68 247.39 C4.1 247.39 3.63 247.79 3.61 248.3 L3.6 248.3 L3.6 249.55 L5.76 249.55 L5.76
						 248.23 ZM2.16 248.19 C2.16 248.19 2.16 248.84 2.16 249.55 L2.88 249.55 C2.88 248.84 2.88 248.19 2.88 248.19
						 L2.89 248.27 C2.93 247.37 3.72 246.67 4.68 246.67 C5.64 246.67 6.43 247.36 6.48 248.19 C6.48 248.19 6.48
						 248.84 6.48 249.55 L7.2 249.55 C7.2 248.84 7.2 248.19 7.2 248.19 C7.13 246.95 6.03 245.95 4.68 245.95 C3.33
						 245.95 2.23 246.95 2.17 248.23 L2.16 248.19 ZM8.28 249.55 C8.88 249.55 9.36 250.03 9.36 250.63 L9.36 255.67
						 C9.36 256.27 8.88 256.75 8.28 256.75 L1.08 256.75 C0.48 256.75 0 256.27 0 255.67 L0 250.63 C0 250.03 0.48
						 249.55 1.08 249.55 L1.44 249.55 L1.44 248.19 L1.45 248.19 C1.53 246.54 2.94 245.23 4.68 245.23 C6.42 245.23
						 7.83 246.54 7.91 248.19 L7.92 248.19 L7.92 249.55 L8.28 249.55 Z" class="st4"/>
		</g>
		<g id="shape6-16" v:mID="6" v:groupContext="shape" transform="translate(306,-47.25)">
			<title>Sheet.6</title>
			<desc>loxwebhook</desc>
			<v:textBlock v:margins="rect(4,4,4,4)"/>
			<v:textRect cx="36" cy="229.75" width="72" height="54"/>
			<rect x="0" y="202.75" width="72" height="54" class="st1"/>
			<text x="6.23" y="233.35" class="st2" v:langID="1031"><v:paragraph v:horizAlign="1"/><v:tabList/>loxwebhook</text>		</g>
		<g id="shape7-19" v:mID="7" v:groupContext="shape" transform="translate(85.3057,156.348) rotate(-91.1935)">
			<title>Simple Arrow.123</title>
			<v:userDefs>
				<v:ud v:nameU="visVersion" v:val="VT0(15):26"/>
				<v:ud v:nameU="ArrowType" v:prompt="" v:val="VT0(2):26"/>
			</v:userDefs>
			<path d="M0 256.75 L22.87 240.82 L22.87 248.78 L54.01 248.78 L54.01 256.75 L54.01 264.72 L22.87 264.72 L22.87 272.68
						 L0 256.75 Z" class="st1"/>
		</g>
		<g id="group8-21" transform="translate(18,-18)" v:mID="8" v:groupContext="group">
			<v:custProps>
				<v:cp v:nameU="ShapeClass" v:lbl="ShapeClass" v:prompt="" v:type="0" v:format="" v:sortKey="" v:invis="true"
						v:ask="false" v:langID="1033" v:cal="0" v:val="VT4(Location)"/>
				<v:cp v:nameU="ShapeType" v:lbl="ShapeType" v:prompt="" v:type="0" v:format="" v:sortKey="" v:invis="true"
						v:ask="false" v:langID="1033" v:cal="0" v:val="VT4(Cloud)"/>
			</v:custProps>
			<v:userDefs>
				<v:ud v:nameU="visVersion" v:prompt="" v:val="VT0(15):26"/>
				<v:ud v:nameU="ShapeClass" v:prompt="" v:val="VT0(5):26"/>
				<v:ud v:nameU="SolSH" v:prompt="" v:val="VT15({BF0433D9-CD73-4EB5-8390-8653BE590246}):41"/>
				<v:ud v:nameU="visLegendShape" v:prompt="" v:val="VT0(2):26"/>
			</v:userDefs>
			<title>Cloud.126</title>
			<desc>Internet</desc>
			<g id="shape9-22" v:mID="9" v:groupContext="shape" transform="translate(0,-24.0009)">
				<title>Sheet.9</title>
				<path d="M81.41 209.82 C80.9 204.51 76.85 200.35 71.87 200.35 C70.45 200.35 69.12 200.7 67.91 201.3 C65.57 196.08
							 60.72 192.25 51.62 192.56 C39.8 192.96 25.8 199.31 22.98 210.56 C19.61 211.33 17.45 213.51 16.15 216.41
							 C15.63 216.35 15.1 216.31 14.55 216.31 C6.76 216.31 0.78 223.08 0.44 231.42 C0 242.21 6.76 246.54 14.55
							 246.54 C15.66 246.54 16.74 246.39 17.78 246.12 C19.39 247.38 21.5 248.15 23.81 248.15 C25.95 248.15
							 27.92 247.49 29.48 246.39 C32.48 252.47 38.64 256.75 45.74 256.25 C53.22 255.73 57.71 253.83 60.36 250.9
							 C60.52 250.88 60.68 250.88 60.85 250.85 C69.21 249.57 72.88 246.99 74.06 242.74 C74.28 242.75 74.51
							 242.75 74.73 242.75 C85.57 242.75 94.35 238.98 94.35 225.75 C94.35 218.41 88.94 212.2 81.41 209.82 Z"
						class="st5"/>
			</g>
			<g id="shape8-24" v:mID="8" v:groupContext="groupContent">
				<v:textBlock v:margins="rect(4,4,4,4)"/>
				<v:textRect cx="47.1772" cy="200.561" width="50.52" height="22.4037"/>
				<text x="27.28" y="204.16" class="st2" v:langID="1031"><v:paragraph v:horizAlign="1"/><v:tabList/>Internet</text>			</g>
		</g>
		<g id="group10-26" transform="translate(555.823,-45)" v:mID="10" v:groupContext="group">
			<title>Sheet.10</title>
			<desc>Miniserver</desc>
			<g id="group11-27" v:mID="11" v:groupContext="group">
				<title>layer1</title>
				<g id="shape12-28" v:mID="12" v:groupContext="shape" transform="translate(14.3833,-9.81778E-06)">
					<title>rect3715</title>
					<rect x="0" y="226.833" width="39.6978" height="29.9172" class="st6"/>
				</g>
				<g id="shape13-30" v:mID="13" v:groupContext="shape" transform="translate(4.71623E-13,-50.9795)">
					<title>rect4787</title>
					<rect x="0" y="249.985" width="94.3543" height="6.76462" class="st7"/>
				</g>
				<g id="shape14-32" v:mID="14" v:groupContext="shape" transform="translate(20.4435,-50.9795)">
					<title>rect4686</title>
					<rect x="0" y="249.985" width="4.97955" height="6.76462" class="st8"/>
				</g>
				<g id="shape15-34" v:mID="15" v:groupContext="shape" transform="translate(30.5022,-50.9795)">
					<title>rect4686-0</title>
					<rect x="0" y="249.985" width="4.97955" height="6.76462" class="st8"/>
				</g>
				<g id="shape16-36" v:mID="16" v:groupContext="shape" transform="translate(40.5608,-50.9795)">
					<title>rect4686-0-8</title>
					<rect x="0" y="249.985" width="4.97955" height="6.76462" class="st8"/>
				</g>
				<g id="shape17-38" v:mID="17" v:groupContext="shape" transform="translate(50.6195,-50.9795)">
					<title>rect4686-0-9</title>
					<rect x="0" y="249.985" width="4.97955" height="6.76462" class="st8"/>
				</g>
				<g id="shape18-40" v:mID="18" v:groupContext="shape" transform="translate(60.6782,-50.9795)">
					<title>rect4686-0-8-4</title>
					<rect x="0" y="249.985" width="4.97955" height="6.76462" class="st8"/>
				</g>
				<g id="shape19-42" v:mID="19" v:groupContext="shape" transform="translate(70.7369,-50.9795)">
					<title>rect4686-0-4</title>
					<rect x="0" y="249.985" width="4.97955" height="6.76462" class="st8"/>
				</g>
				<g id="shape20-44" v:mID="20" v:groupContext="shape" transform="translate(80.7955,-50.9795)">
					<title>rect4686-0-8-8</title>
					<rect x="0" y="249.985" width="4.97955" height="6.76462" class="st8"/>
				</g>
				<g id="shape21-46" v:mID="21" v:groupContext="shape" transform="translate(4.71623E-13,-17.6147)">
					<title>rect4781</title>
					<rect x="0" y="229.134" width="94.3543" height="27.6159" class="st9"/>
				</g>
				<g id="shape22-48" v:mID="22" v:groupContext="shape" transform="translate(4.71623E-13,-45.2306)">
					<title>rect4783</title>
					<rect x="0" y="251.001" width="94.3543" height="5.74884" class="st10"/>
				</g>
				<g id="shape23-50" v:mID="23" v:groupContext="shape" transform="translate(23.1571,-57.7441)">
					<title>rect4797</title>
					<rect x="0" y="251.649" width="29.6296" height="5.10127" class="st11"/>
				</g>
				<g id="shape24-52" v:mID="24" v:groupContext="shape" transform="translate(0,-5.10127)">
					<title>rect4787-2</title>
					<rect x="0" y="249.985" width="94.3543" height="6.76462" class="st7"/>
				</g>
				<g id="shape25-54" v:mID="25" v:groupContext="shape" transform="translate(20.4435,-5.10127)">
					<title>rect4686-30</title>
					<rect x="0" y="249.985" width="4.97955" height="6.76462" class="st8"/>
				</g>
				<g id="shape26-56" v:mID="26" v:groupContext="shape" transform="translate(30.5022,-5.10127)">
					<title>rect4686-0-3</title>
					<rect x="0" y="249.985" width="4.97955" height="6.76462" class="st8"/>
				</g>
				<g id="shape27-58" v:mID="27" v:groupContext="shape" transform="translate(40.5608,-5.10127)">
					<title>rect4686-0-8-0</title>
					<rect x="0" y="249.985" width="4.97955" height="6.76462" class="st8"/>
				</g>
				<g id="shape28-60" v:mID="28" v:groupContext="shape" transform="translate(50.6195,-5.10127)">
					<title>rect4686-0-9-1</title>
					<rect x="0" y="249.985" width="4.97955" height="6.76462" class="st8"/>
				</g>
				<g id="shape29-62" v:mID="29" v:groupContext="shape" transform="translate(60.6782,-5.10127)">
					<title>rect4686-0-8-4-9</title>
					<rect x="0" y="249.985" width="4.97955" height="6.76462" class="st8"/>
				</g>
				<g id="shape30-64" v:mID="30" v:groupContext="shape" transform="translate(70.7369,-5.10127)">
					<title>rect4686-0-4-6</title>
					<rect x="0" y="249.985" width="4.97955" height="6.76462" class="st8"/>
				</g>
				<g id="shape31-66" v:mID="31" v:groupContext="shape" transform="translate(80.7956,-5.10127)">
					<title>rect4686-0-8-8-4</title>
					<rect x="0" y="249.985" width="4.97955" height="6.76462" class="st8"/>
				</g>
				<g id="shape32-68" v:mID="32" v:groupContext="shape" transform="translate(0,-11.8659)">
					<title>rect4783-3</title>
					<rect x="0" y="251.001" width="94.3543" height="5.74884" class="st10"/>
				</g>
				<g id="shape33-70" v:mID="33" v:groupContext="shape" transform="translate(14.3833,5.68434E-14)">
					<title>rect4797-0</title>
					<rect x="0" y="251.649" width="11.9042" height="5.10127" class="st12"/>
				</g>
				<g id="shape34-72" v:mID="34" v:groupContext="shape" transform="translate(26.1759,-1.37753E-05)">
					<title>rect4871</title>
					<rect x="0" y="251.649" width="6.30572" height="5.10127" class="st13"/>
				</g>
				<g id="shape35-74" v:mID="35" v:groupContext="shape" transform="translate(52.7866,-57.7441)">
					<title>rect4873</title>
					<rect x="0" y="251.615" width="18.5544" height="5.13487" class="st14"/>
				</g>
				<g id="shape36-76" v:mID="36" v:groupContext="shape" transform="translate(38.2788,-1.88745E-05)">
					<title>rect4891</title>
					<rect x="0" y="251.649" width="47.7506" height="5.10125" class="st15"/>
				</g>
				<g id="shape37-78" v:mID="37" v:groupContext="shape" transform="translate(71.341,-57.7441)">
					<title>rect4897</title>
					<rect x="0" y="251.615" width="14.6883" height="5.13487" class="st16"/>
				</g>
			</g>
			<g id="shape10-80" v:mID="10" v:groupContext="groupContent">
				<v:textBlock v:margins="rect(0,0,0,0)"/>
				<v:textRect cx="47.1772" cy="225.311" width="94.36" height="62.879"/>
				<text x="20.93" y="228.91" class="st17" v:langID="1031"><v:paragraph v:horizAlign="1"/><v:tabList/>Miniserver</text>			</g>
		</g>
	</g>
</svg>
