<?xml version="1.0" encoding="UTF-8" standalone="no"?>
<!DOCTYPE svg PUBLIC "-//W3C//DTD SVG 1.1//EN" "http://www.w3.org/Graphics/SVG/1.1/DTD/svg11.dtd">
<!-- Generated by Microsoft Visio, SVG Export OverviewExampleSetup.svg Page-1 -->
<svg xmlns="http://www.w3.org/2000/svg" xmlns:xlink="http://www.w3.org/1999/xlink" xmlns:ev="http://www.w3.org/2001/xml-events"
		xmlns:v="http://schemas.microsoft.com/visio/2003/SVGExtensions/" width="9.96079in" height="2.8994in"
		viewBox="0 0 717.177 208.757" xml:space="preserve" color-interpolation-filters="sRGB" class="st23">
	<v:documentProperties v:langID="1033" v:viewMarkup="false">
		<v:userDefs>
			<v:ud v:nameU="msvNoAutoConnect" v:prompt="" v:val="VT0(0):26"/>
		</v:userDefs>
	</v:documentProperties>

	<style type="text/css">
	<![CDATA[
		.st1 {fill:#ffffff;stroke:none;stroke-linecap:butt;stroke-width:4}
		.st2 {fill:#288e15;stroke:none;stroke-linecap:butt;stroke-width:4}
		.st3 {fill:#000000;stroke:none;stroke-linecap:butt;stroke-width:3.7029}
		.st4 {fill:#83c558;stroke:none;stroke-linecap:butt;stroke-width:4}
		.st5 {fill:#3fa523;stroke:none;stroke-linecap:butt;stroke-width:4}
		.st6 {fill:#33b182;stroke:none;stroke-linecap:butt;stroke-width:3.67575}
		.st7 {fill:#33b182;stroke:none;stroke-linecap:butt;stroke-width:2.32988}
		.st8 {fill:#0093c5;stroke:none;stroke-linecap:butt;stroke-width:4}
		.st9 {fill:#fca03a;stroke:none;stroke-linecap:butt;stroke-width:4}
		.st10 {fill:#e44242;stroke:none;stroke-linecap:butt;stroke-width:4}
		.st11 {fill:#4f4f4a;stroke:none;stroke-linecap:butt;stroke-width:4}
		.st12 {fill:#feffff;font-family:Calibri;font-size:1.00001em}
		.st13 {fill:#83c558;stroke:#ffffff;stroke-linecap:round;stroke-linejoin:round;stroke-width:0.5}
		.st14 {fill:#ffffff;font-family:Calibri;font-size:1.00001em}
		.st15 {fill:#73ae42;stroke:#ffffff;stroke-linecap:round;stroke-linejoin:round;stroke-width:0.5}
		.st16 {fill:#aad288;stroke:#ffffff;stroke-linecap:round;stroke-linejoin:round;stroke-width:0.5}
		.st17 {fill:#ffffff}
		.st18 {fill:#73ae42;font-family:Calibri;font-size:1.00001em}
		.st19 {stroke:#73ae42;stroke-linecap:round;stroke-linejoin:round;stroke-width:0.5}
		.st20 {font-size:1em}
		.st21 {fill:#73ae42;stroke:#73ae42;stroke-linecap:butt;stroke-width:0.75}
		.st22 {fill:#73ae42;stroke:none;stroke-linecap:butt;stroke-width:0.5}
		.st23 {fill:none;fill-rule:evenodd;font-size:12px;overflow:visible;stroke-linecap:square;stroke-miterlimit:3}
	]]>
	</style>

	<g v:mID="0" v:index="1" v:groupContext="foregroundPage">
		<v:userDefs>
			<v:ud v:nameU="msvThemeOrder" v:val="VT0(0):26"/>
		</v:userDefs>
		<title>Page-1</title>
		<v:pageProperties v:drawingScale="1" v:pageScale="1" v:drawingUnits="0" v:shadowOffsetX="9" v:shadowOffsetY="-9"/>
		<v:layer v:name="Connector" v:index="0"/>
		<g id="group1-1" transform="translate(600.823,-103.068)" v:mID="1" v:groupContext="group">
			<title>Sheet.1</title>
			<desc>Miniserver</desc>
			<g id="group2-2" v:mID="2" v:groupContext="group">
				<title>layer1</title>
				<g id="shape3-3" v:mID="3" v:groupContext="shape" transform="translate(14.3833,-9.81778E-06)">
					<title>rect3715</title>
					<rect x="0" y="178.84" width="39.6978" height="29.9172" class="st1"/>
				</g>
				<g id="shape4-5" v:mID="4" v:groupContext="shape" transform="translate(4.71623E-13,-50.9795)">
					<title>rect4787</title>
					<rect x="0" y="201.992" width="94.3543" height="6.76462" class="st2"/>
				</g>
				<g id="shape5-7" v:mID="5" v:groupContext="shape" transform="translate(20.4435,-50.9795)">
					<title>rect4686</title>
					<rect x="0" y="201.992" width="4.97955" height="6.76462" class="st3"/>
				</g>
				<g id="shape6-9" v:mID="6" v:groupContext="shape" transform="translate(30.5022,-50.9795)">
					<title>rect4686-0</title>
					<rect x="0" y="201.992" width="4.97955" height="6.76462" class="st3"/>
				</g>
				<g id="shape7-11" v:mID="7" v:groupContext="shape" transform="translate(40.5608,-50.9795)">
					<title>rect4686-0-8</title>
					<rect x="0" y="201.992" width="4.97955" height="6.76462" class="st3"/>
				</g>
				<g id="shape8-13" v:mID="8" v:groupContext="shape" transform="translate(50.6195,-50.9795)">
					<title>rect4686-0-9</title>
					<rect x="0" y="201.992" width="4.97955" height="6.76462" class="st3"/>
				</g>
				<g id="shape9-15" v:mID="9" v:groupContext="shape" transform="translate(60.6782,-50.9795)">
					<title>rect4686-0-8-4</title>
					<rect x="0" y="201.992" width="4.97955" height="6.76462" class="st3"/>
				</g>
				<g id="shape10-17" v:mID="10" v:groupContext="shape" transform="translate(70.7369,-50.9795)">
					<title>rect4686-0-4</title>
					<rect x="0" y="201.992" width="4.97955" height="6.76462" class="st3"/>
				</g>
				<g id="shape11-19" v:mID="11" v:groupContext="shape" transform="translate(80.7955,-50.9795)">
					<title>rect4686-0-8-8</title>
					<rect x="0" y="201.992" width="4.97955" height="6.76462" class="st3"/>
				</g>
				<g id="shape12-21" v:mID="12" v:groupContext="shape" transform="translate(4.71623E-13,-17.6147)">
					<title>rect4781</title>
					<rect x="0" y="181.141" width="94.3543" height="27.6159" class="st4"/>
				</g>
				<g id="shape13-23" v:mID="13" v:groupContext="shape" transform="translate(4.71623E-13,-45.2306)">
					<title>rect4783</title>
					<rect x="0" y="203.008" width="94.3543" height="5.74884" class="st5"/>
				</g>
				<g id="shape14-25" v:mID="14" v:groupContext="shape" transform="translate(23.1571,-57.7441)">
					<title>rect4797</title>
					<rect x="0" y="203.656" width="29.6296" height="5.10127" class="st6"/>
				</g>
				<g id="shape15-27" v:mID="15" v:groupContext="shape" transform="translate(0,-5.10127)">
					<title>rect4787-2</title>
					<rect x="0" y="201.992" width="94.3543" height="6.76462" class="st2"/>
				</g>
				<g id="shape16-29" v:mID="16" v:groupContext="shape" transform="translate(20.4435,-5.10127)">
					<title>rect4686-30</title>
					<rect x="0" y="201.992" width="4.97955" height="6.76462" class="st3"/>
				</g>
				<g id="shape17-31" v:mID="17" v:groupContext="shape" transform="translate(30.5022,-5.10127)">
					<title>rect4686-0-3</title>
					<rect x="0" y="201.992" width="4.97955" height="6.76462" class="st3"/>
				</g>
				<g id="shape18-33" v:mID="18" v:groupContext="shape" transform="translate(40.5608,-5.10127)">
					<title>rect4686-0-8-0</title>
					<rect x="0" y="201.992" width="4.97955" height="6.76462" class="st3"/>
				</g>
				<g id="shape19-35" v:mID="19" v:groupContext="shape" transform="translate(50.6195,-5.10127)">
					<title>rect4686-0-9-1</title>
					<rect x="0" y="201.992" width="4.97955" height="6.76462" class="st3"/>
				</g>
				<g id="shape20-37" v:mID="20" v:groupContext="shape" transform="translate(60.6782,-5.10127)">
					<title>rect4686-0-8-4-9</title>
					<rect x="0" y="201.992" width="4.97955" height="6.76462" class="st3"/>
				</g>
				<g id="shape21-39" v:mID="21" v:groupContext="shape" transform="translate(70.7369,-5.10127)">
					<title>rect4686-0-4-6</title>
					<rect x="0" y="201.992" width="4.97955" height="6.76462" class="st3"/>
				</g>
				<g id="shape22-41" v:mID="22" v:groupContext="shape" transform="translate(80.7956,-5.10127)">
					<title>rect4686-0-8-8-4</title>
					<rect x="0" y="201.992" width="4.97955" height="6.76462" class="st3"/>
				</g>
				<g id="shape23-43" v:mID="23" v:groupContext="shape" transform="translate(0,-11.8659)">
					<title>rect4783-3</title>
					<rect x="0" y="203.008" width="94.3543" height="5.74884" class="st5"/>
				</g>
				<g id="shape24-45" v:mID="24" v:groupContext="shape" transform="translate(14.3833,5.68434E-14)">
					<title>rect4797-0</title>
					<rect x="0" y="203.656" width="11.9042" height="5.10127" class="st7"/>
				</g>
				<g id="shape25-47" v:mID="25" v:groupContext="shape" transform="translate(26.1759,-1.37753E-05)">
					<title>rect4871</title>
					<rect x="0" y="203.656" width="6.30572" height="5.10127" class="st8"/>
				</g>
				<g id="shape26-49" v:mID="26" v:groupContext="shape" transform="translate(52.7866,-57.7441)">
					<title>rect4873</title>
					<rect x="0" y="203.622" width="18.5544" height="5.13487" class="st9"/>
				</g>
				<g id="shape27-51" v:mID="27" v:groupContext="shape" transform="translate(38.2788,-1.88745E-05)">
					<title>rect4891</title>
					<rect x="0" y="203.656" width="47.7506" height="5.10125" class="st10"/>
				</g>
				<g id="shape28-53" v:mID="28" v:groupContext="shape" transform="translate(71.341,-57.7441)">
					<title>rect4897</title>
					<rect x="0" y="203.622" width="14.6883" height="5.13487" class="st11"/>
				</g>
			</g>
			<g id="shape1-55" v:mID="1" v:groupContext="groupContent">
				<v:textBlock v:margins="rect(0,0,0,0)"/>
				<v:textRect cx="47.1772" cy="177.318" width="94.36" height="62.879"/>
				<text x="20.93" y="180.92" class="st12" v:langID="1031"><v:paragraph v:horizAlign="1"/><v:tabList/>Miniserver</text>			</g>
		</g>
		<g id="group29-57" transform="translate(18,-78.2571)" v:mID="29" v:groupContext="group">
			<v:custProps>
				<v:cp v:nameU="ShapeClass" v:lbl="ShapeClass" v:prompt="" v:type="0" v:format="" v:sortKey="" v:invis="true"
						v:ask="false" v:langID="1033" v:cal="0" v:val="VT4(Location)"/>
				<v:cp v:nameU="ShapeType" v:lbl="ShapeType" v:prompt="" v:type="0" v:format="" v:sortKey="" v:invis="true"
						v:ask="false" v:langID="1033" v:cal="0" v:val="VT4(Cloud)"/>
			</v:custProps>
			<v:userDefs>
				<v:ud v:nameU="visVersion" v:prompt="" v:val="VT0(15):26"/>
				<v:ud v:nameU="ShapeClass" v:prompt="" v:val="VT0(5):26"/>
				<v:ud v:nameU="SolSH" v:prompt="" v:val="VT15({BF0433D9-CD73-4EB5-8390-8653BE590246}):41"/>
				<v:ud v:nameU="visLegendShape" v:prompt="" v:val="VT0(2):26"/>
			</v:userDefs>
			<title>Cloud</title>
			<desc>Internet</desc>
			<g id="shape30-58" v:mID="30" v:groupContext="shape" transform="translate(0,-24.0009)">
				<title>Sheet.30</title>
				<path d="M81.41 161.83 C80.9 156.51 76.85 152.36 71.87 152.36 C70.45 152.36 69.12 152.71 67.91 153.31 C65.57 148.08
							 60.72 144.26 51.62 144.57 C39.8 144.97 25.8 151.31 22.98 162.57 C19.61 163.34 17.45 165.52 16.15 168.42
							 C15.63 168.35 15.1 168.32 14.55 168.32 C6.76 168.32 0.78 175.09 0.44 183.43 C0 194.22 6.76 198.54 14.55
							 198.54 C15.66 198.54 16.74 198.39 17.78 198.13 C19.39 199.39 21.5 200.16 23.81 200.16 C25.95 200.16
							 27.92 199.5 29.48 198.4 C32.48 204.48 38.64 208.76 45.74 208.26 C53.22 207.74 57.71 205.84 60.36 202.9
							 C60.52 202.88 60.68 202.88 60.85 202.86 C69.21 201.58 72.88 199 74.06 194.75 C74.28 194.75 74.51 194.76
							 74.73 194.76 C85.57 194.76 94.35 190.98 94.35 177.76 C94.35 170.41 88.94 164.2 81.41 161.83 Z"
						class="st13"/>
			</g>
			<g id="shape29-60" v:mID="29" v:groupContext="groupContent">
				<v:textBlock v:margins="rect(4,4,4,4)"/>
				<v:textRect cx="47.1772" cy="152.568" width="50.52" height="22.4037"/>
				<text x="27.28" y="156.17" class="st14" v:langID="1031"><v:paragraph v:horizAlign="1"/><v:tabList/>Internet</text>			</g>
		</g>
		<g id="group58-62" transform="translate(227.177,-98.5071)" v:mID="58" v:groupContext="group">
			<v:custProps>
				<v:cp v:nameU="AssetNumber" v:lbl="Asset Number" v:prompt="" v:type="0" v:format="" v:sortKey="Asset"
						v:invis="false" v:ask="false" v:langID="1033" v:cal="0"/>
				<v:cp v:nameU="SerialNumber" v:lbl="Serial Number" v:prompt="" v:type="0" v:format="" v:sortKey="Asset"
						v:invis="false" v:ask="false" v:langID="1033" v:cal="0"/>
				<v:cp v:nameU="Location" v:lbl="Location" v:prompt="" v:type="0" v:format="" v:sortKey="Asset" v:invis="false"
						v:ask="false" v:langID="1033" v:cal="0"/>
				<v:cp v:nameU="Building" v:lbl="Building" v:prompt="" v:type="0" v:format="" v:sortKey="Asset" v:invis="false"
						v:ask="false" v:langID="1033" v:cal="0"/>
				<v:cp v:nameU="Room" v:lbl="Room" v:prompt="" v:type="0" v:format="" v:sortKey="Asset" v:invis="false"
						v:ask="false" v:langID="1033" v:cal="0"/>
				<v:cp v:nameU="Manufacturer" v:lbl="Manufacturer" v:prompt="" v:type="0" v:format="" v:sortKey="Equipment"
						v:invis="false" v:ask="false" v:langID="1033" v:cal="0"/>
				<v:cp v:nameU="ProductNumber" v:lbl="Product Number" v:prompt="" v:type="0" v:format="" v:sortKey="Equipment"
						v:invis="false" v:ask="false" v:langID="1033" v:cal="0"/>
				<v:cp v:nameU="PartNumber" v:lbl="Part Number" v:prompt="" v:type="0" v:format="" v:sortKey="Equipment"
						v:invis="false" v:ask="false" v:langID="1033" v:cal="0"/>
				<v:cp v:nameU="ProductDescription" v:lbl="Product Description" v:prompt="" v:type="0" v:format=""
						v:sortKey="Equipment" v:invis="false" v:ask="false" v:langID="1033" v:cal="0"/>
				<v:cp v:nameU="NetworkName" v:lbl="Network Name" v:prompt="" v:type="0" v:format="" v:sortKey="Network"
						v:invis="false" v:ask="false" v:langID="1033" v:cal="0"/>
				<v:cp v:nameU="IPAddress" v:lbl="IP Address" v:prompt="" v:type="0" v:format="" v:sortKey="Network" v:invis="false"
						v:ask="false" v:langID="1033" v:cal="0"/>
				<v:cp v:nameU="SubnetMask" v:lbl="Subnet Mask" v:prompt="" v:type="0" v:format="" v:sortKey="Network"
						v:invis="false" v:ask="false" v:langID="1033" v:cal="0"/>
				<v:cp v:nameU="AdminInterface" v:lbl="Administrative Interface" v:prompt="" v:type="0" v:format=""
						v:sortKey="Network" v:invis="false" v:ask="false" v:langID="1033" v:cal="0"/>
				<v:cp v:nameU="NumberofPorts" v:lbl="Number of Ports" v:prompt="" v:type="0" v:format="" v:sortKey="Network"
						v:invis="false" v:ask="false" v:langID="1033" v:cal="0"/>
				<v:cp v:nameU="CommunityString" v:lbl="Community String" v:prompt="" v:type="0" v:format="" v:sortKey="Network"
						v:invis="false" v:ask="false" v:langID="1033" v:cal="0"/>
				<v:cp v:nameU="NetworkDescription" v:lbl="Network Description" v:prompt="" v:type="0" v:format=""
						v:sortKey="Network" v:invis="false" v:ask="false" v:langID="1033" v:cal="0"/>
				<v:cp v:nameU="MACAddress" v:lbl="MAC Address" v:prompt="" v:type="0" v:format="" v:sortKey="Network"
						v:invis="false" v:ask="false" v:langID="1033" v:cal="0"/>
				<v:cp v:nameU="ShapeClass" v:lbl="ShapeClass" v:prompt="" v:type="0" v:format="" v:sortKey="" v:invis="true"
						v:ask="false" v:langID="1033" v:cal="0" v:val="VT4(Equipment)"/>
				<v:cp v:nameU="ShapeType" v:lbl="ShapeType" v:prompt="" v:type="0" v:format="" v:sortKey="" v:invis="true"
						v:ask="false" v:langID="1033" v:cal="0" v:val="VT4(Device)"/>
				<v:cp v:nameU="SubShapeType" v:lbl="SubShapeType" v:prompt="" v:type="0" v:format="" v:sortKey="" v:invis="true"
						v:ask="false" v:langID="1033" v:cal="0" v:val="VT4(Router)"/>
			</v:custProps>
			<v:userDefs>
				<v:ud v:nameU="visVersion" v:prompt="" v:val="VT0(15):26"/>
				<v:ud v:nameU="ShapeClass" v:prompt="" v:val="VT0(5):26"/>
				<v:ud v:nameU="SolSH" v:prompt="" v:val="VT15({BF0433D9-CD73-4EB5-8390-8653BE590246}):41"/>
				<v:ud v:nameU="visLegendShape" v:prompt="" v:val="VT0(2):26"/>
			</v:userDefs>
			<title>Router</title>
			<desc>Router</desc>
			<g id="shape59-63" v:mID="59" v:groupContext="shape" transform="translate(0,-19.5246)">
				<title>Sheet.59</title>
				<path d="M66.41 208.76 L67.85 205.88 L4.07 205.88 L5.51 208.76 L66.41 208.76 ZM72 175.81 L0 175.81 L0 204.68 L72
							 204.68 L72 175.81 Z" class="st15"/>
			</g>
			<g id="shape60-65" v:mID="60" v:groupContext="shape" transform="translate(49.0975,-29.3116)">
				<title>Sheet.60</title>
				<rect x="0" y="190.97" width="18.7423" height="17.7869" class="st16"/>
			</g>
			<g id="shape61-67" v:mID="61" v:groupContext="shape" transform="translate(8.09064,-33.3961)">
				<title>Sheet.61</title>
				<v:userDefs>
					<v:ud v:nameU="SurroundingRegionColor" v:prompt="" v:val="VT0(1):26"/>
					<v:ud v:nameU="SurroundingRegionColor" v:prompt="" v:val="VT5(#73ae42)"/>
				</v:userDefs>
				<path d="M5.07 199.2 L0 199.2 L0 201.63 L1.32 201.63 L1.32 202.89 L3.75 202.89 L3.75 201.63 L5.07 201.63 L5.07 199.2
							 ZM13.2 199.2 L8.14 199.2 L8.14 201.63 L9.45 201.63 L9.45 202.89 L11.89 202.89 L11.89 201.63 L13.2 201.63
							 L13.2 199.2 ZM21.34 199.2 L16.27 199.2 L16.27 201.63 L17.59 201.63 L17.59 202.89 L20.02 202.89 L20.02
							 201.63 L21.34 201.63 L21.34 199.2 ZM29.48 199.2 L24.41 199.2 L24.41 201.63 L25.73 201.63 L25.73 202.89
							 L28.16 202.89 L28.16 201.63 L29.48 201.63 L29.48 199.2 ZM29.48 205.06 L24.41 205.06 L24.41 207.49 L25.73
							 207.49 L25.73 208.76 L28.16 208.76 L28.16 207.49 L29.48 207.49 L29.48 205.06 ZM21.34 205.06 L16.27 205.06
							 L16.27 207.49 L17.59 207.49 L17.59 208.76 L20.02 208.76 L20.02 207.49 L21.34 207.49 L21.34 205.06 ZM13.2
							 205.06 L8.14 205.06 L8.14 207.49 L9.45 207.49 L9.45 208.76 L11.89 208.76 L11.89 207.49 L13.2 207.49
							 L13.2 205.06 ZM5.07 205.06 L0 205.06 L0 207.49 L1.32 207.49 L1.32 208.76 L3.75 208.76 L3.75 207.49 L5.07
							 207.49 L5.07 205.06 Z" class="st17"/>
			</g>
			<g id="shape62-70" v:mID="62" v:groupContext="shape" transform="translate(50.5519,-30.3563)">
				<title>Sheet.62</title>
				<v:userDefs>
					<v:ud v:nameU="SurroundingRegionColor" v:prompt="" v:val="VT0(1):26"/>
					<v:ud v:nameU="SurroundingRegionColor" v:prompt="" v:val="VT5(#aad288)"/>
				</v:userDefs>
				<path d="M7.55 206.89 L6.28 205.6 L6.28 207.1 L8.09 208.76 L9.89 207.1 L9.89 205.6 L8.63 206.87 L8.63 202.49 L7.55
							 202.49 L7.55 206.89 ZM11.78 200.38 L13.06 199.1 L11.57 199.1 L9.9 200.91 L11.56 202.71 L13.06 202.71
							 L11.79 201.45 L16.17 201.45 L16.17 200.38 L11.78 200.38 ZM8.62 194.93 L9.89 196.21 L9.89 194.72 L8.09
							 193.06 L6.28 194.72 L6.28 196.22 L7.54 194.94 L7.54 199.33 L8.62 199.33 L8.62 194.93 ZM4.4 201.44 L3.12
							 202.71 L4.61 202.71 L6.27 200.91 L4.62 199.1 L3.11 199.1 L4.39 200.37 L0 200.37 L0 201.44 L4.4 201.44
							 Z" class="st17"/>
			</g>
			<g id="shape58-73" v:mID="58" v:groupContext="groupContent">
				<v:textBlock v:margins="rect(4,4,4,4)"/>
				<v:textRect cx="36" cy="150.318" width="44.04" height="22.4037"/>
				<text x="19.34" y="153.92" class="st18" v:langID="1031"><v:paragraph v:horizAlign="1"/><v:tabList/>Router</text>			</g>
		</g>
		<g id="shape64-75" v:mID="64" v:groupContext="shape" v:layerMember="0" transform="translate(112.302,-125.507)">
			<title>Dynamic connector</title>
			<desc>HTTPS Port 443</desc>
			<v:textBlock v:margins="rect(4,4,4,4)"/>
			<v:textRect cx="57.4378" cy="199.757" width="60.01" height="36.8038"/>
			<path d="M0 199.76 L114.88 199.76" class="st19"/>
			<text x="42" y="196.16" class="st18" v:langID="1031"><v:paragraph v:horizAlign="1"/><v:tabList/>HTTPS<v:lf/><tspan
						x="36.59" dy="1.2em" class="st20">Port 443</tspan></text>		</g>
		<g id="group65-80" transform="translate(414,-98.5071)" v:mID="65" v:groupContext="group">
			<v:custProps>
				<v:cp v:nameU="AssetNumber" v:lbl="Asset Number" v:prompt="" v:type="0" v:format="" v:sortKey="Asset"
						v:invis="false" v:ask="false" v:langID="1033" v:cal="0"/>
				<v:cp v:nameU="SerialNumber" v:lbl="Serial Number" v:prompt="" v:type="0" v:format="" v:sortKey="Asset"
						v:invis="false" v:ask="false" v:langID="1033" v:cal="0"/>
				<v:cp v:nameU="Location" v:lbl="Location" v:prompt="" v:type="0" v:format="" v:sortKey="Asset" v:invis="false"
						v:ask="false" v:langID="1033" v:cal="0"/>
				<v:cp v:nameU="Building" v:lbl="Building" v:prompt="" v:type="0" v:format="" v:sortKey="Asset" v:invis="false"
						v:ask="false" v:langID="1033" v:cal="0"/>
				<v:cp v:nameU="Room" v:lbl="Room" v:prompt="" v:type="0" v:format="" v:sortKey="Asset" v:invis="false"
						v:ask="false" v:langID="1033" v:cal="0"/>
				<v:cp v:nameU="Manufacturer" v:lbl="Manufacturer" v:prompt="" v:type="0" v:format="" v:sortKey="Equipment"
						v:invis="false" v:ask="false" v:langID="1033" v:cal="0"/>
				<v:cp v:nameU="ProductNumber" v:lbl="Product Number" v:prompt="" v:type="0" v:format="" v:sortKey="Equipment"
						v:invis="false" v:ask="false" v:langID="1033" v:cal="0"/>
				<v:cp v:nameU="PartNumber" v:lbl="Part Number" v:prompt="" v:type="0" v:format="" v:sortKey="Equipment"
						v:invis="false" v:ask="false" v:langID="1033" v:cal="0"/>
				<v:cp v:nameU="ProductDescription" v:lbl="Product Description" v:prompt="" v:type="0" v:format=""
						v:sortKey="Equipment" v:invis="false" v:ask="false" v:langID="1033" v:cal="0"/>
				<v:cp v:nameU="NetworkName" v:lbl="Network Name" v:prompt="" v:type="0" v:format="" v:sortKey="Network"
						v:invis="false" v:ask="false" v:langID="1033" v:cal="0"/>
				<v:cp v:nameU="IPAddress" v:lbl="IP Address" v:prompt="" v:type="0" v:format="" v:sortKey="Network" v:invis="false"
						v:ask="false" v:langID="1033" v:cal="0"/>
				<v:cp v:nameU="SubnetMask" v:lbl="Subnet Mask" v:prompt="" v:type="0" v:format="" v:sortKey="Network"
						v:invis="false" v:ask="false" v:langID="1033" v:cal="0"/>
				<v:cp v:nameU="AdminInterface" v:lbl="Administrative Interface" v:prompt="" v:type="0" v:format=""
						v:sortKey="Network" v:invis="false" v:ask="false" v:langID="1033" v:cal="0"/>
				<v:cp v:nameU="NumberofPorts" v:lbl="Number of Ports" v:prompt="" v:type="0" v:format="" v:sortKey="Network"
						v:invis="false" v:ask="false" v:langID="1033" v:cal="0"/>
				<v:cp v:nameU="CommunityString" v:lbl="Community String" v:prompt="" v:type="0" v:format="" v:sortKey="Network"
						v:invis="false" v:ask="false" v:langID="1033" v:cal="0"/>
				<v:cp v:nameU="NetworkDescription" v:lbl="Network Description" v:prompt="" v:type="0" v:format=""
						v:sortKey="Network" v:invis="false" v:ask="false" v:langID="1033" v:cal="0"/>
				<v:cp v:nameU="MACAddress" v:lbl="MAC Address" v:prompt="" v:type="0" v:format="" v:sortKey="Network"
						v:invis="false" v:ask="false" v:langID="1033" v:cal="0"/>
				<v:cp v:nameU="CPU" v:lbl="CPU" v:prompt="" v:type="0" v:format="" v:sortKey="Workstation" v:invis="false"
						v:ask="false" v:langID="1033" v:cal="0"/>
				<v:cp v:nameU="Memory" v:lbl="Memory" v:prompt="" v:type="0" v:format="" v:sortKey="Workstation" v:invis="false"
						v:ask="false" v:langID="1033" v:cal="0"/>
				<v:cp v:nameU="OperatingSystem" v:lbl="Operating System" v:prompt="" v:type="0" v:format="" v:sortKey="Workstation"
						v:invis="false" v:ask="false" v:langID="1033" v:cal="0"/>
				<v:cp v:nameU="HardDriveSize" v:lbl="Hard Drive Capacity" v:prompt="" v:type="0" v:format=""
						v:sortKey="Workstation" v:invis="false" v:ask="false" v:langID="1033" v:cal="0"/>
				<v:cp v:nameU="Department" v:lbl="Department" v:prompt="" v:type="0" v:format="" v:sortKey="" v:invis="false"
						v:ask="false" v:langID="1033" v:cal="0"/>
				<v:cp v:nameU="ShapeClass" v:lbl="ShapeClass" v:prompt="" v:type="0" v:format="" v:sortKey="" v:invis="true"
						v:ask="false" v:langID="1033" v:cal="0" v:val="VT4(Equipment)"/>
				<v:cp v:nameU="ShapeType" v:lbl="ShapeType" v:prompt="" v:type="0" v:format="" v:sortKey="" v:invis="true"
						v:ask="false" v:langID="1033" v:cal="0" v:val="VT4(Server)"/>
				<v:cp v:nameU="BelongsTo" v:lbl="Belongs To" v:prompt="" v:type="0" v:format="" v:sortKey="" v:invis="true"
						v:ask="false" v:langID="1033" v:cal="0"/>
			</v:custProps>
			<v:userDefs>
				<v:ud v:nameU="visVersion" v:prompt="" v:val="VT0(15):26"/>
				<v:ud v:nameU="ShapeClass" v:prompt="" v:val="VT0(5):26"/>
				<v:ud v:nameU="SolSH" v:prompt="" v:val="VT15({BF0433D9-CD73-4EB5-8390-8653BE590246}):41"/>
				<v:ud v:nameU="visLegendShape" v:prompt="" v:val="VT0(2):26"/>
			</v:userDefs>
			<title>Server</title>
			<desc>Server</desc>
			<g id="shape66-81" v:mID="66" v:groupContext="shape" transform="translate(13.0183,2.84217E-14)">
				<title>Sheet.66</title>
				<rect x="0" y="136.757" width="45.9634" height="72" class="st15"/>
			</g>
			<g id="shape67-83" v:mID="67" v:groupContext="shape" transform="translate(47.371,-30.7354)">
				<title>Sheet.67</title>
				<ellipse cx="2.77848" cy="205.979" rx="2.77848" ry="2.77848" class="st16"/>
			</g>
			<g id="shape68-85" v:mID="68" v:groupContext="shape" transform="translate(30.51,-11.8022)">
				<title>Sheet.68</title>
				<v:userDefs>
					<v:ud v:nameU="SurroundingRegionColor" v:prompt="" v:val="VT0(1):26"/>
					<v:ud v:nameU="SurroundingRegionColor" v:prompt="" v:val="VT5(#73ae42)"/>
				</v:userDefs>
				<path d="M-0 208.76 L22.42 208.76 L22.42 206.96 L-0 206.96 L-0 208.76 ZM-0 203.3 L22.42 203.3 L22.42 201.5 L-0 201.5
							 L-0 203.3 ZM-0 197.84 L22.42 197.84 L22.42 196.04 L-0 196.04 L-0 197.84 Z" class="st17"/>
			</g>
			<g id="shape65-88" v:mID="65" v:groupContext="groupContent">
				<v:textBlock v:margins="rect(4,4,4,4)"/>
				<v:textRect cx="36" cy="159.318" width="41.96" height="22.4037"/>
				<text x="20.38" y="162.92" class="st12" v:langID="1031"><v:paragraph v:horizAlign="1"/><v:tabList/>Server</text>			</g>
		</g>
		<g id="shape69-90" v:mID="69" v:groupContext="shape" v:layerMember="0" transform="translate(299.177,-125.507)">
			<title>Dynamic connector.69</title>
			<desc>HTTPS Port 4443</desc>
			<v:textBlock v:margins="rect(4,4,4,4)"/>
			<v:textRect cx="63.9206" cy="199.757" width="60.01" height="36.8038"/>
			<path d="M0 199.76 L127.84 199.76" class="st19"/>
			<text x="48.48" y="196.16" class="st18" v:langID="1031"><v:paragraph v:horizAlign="1"/><v:tabList/>HTTPS<v:lf/><tspan
						x="40.03" dy="1.2em" class="st20">Port 4443</tspan></text>		</g>
		<g id="shape70-95" v:mID="70" v:groupContext="shape" v:layerMember="0" transform="translate(472.982,-125.49)">
			<title>Dynamic connector.70</title>
			<desc>HTTP Port 80</desc>
			<v:textBlock v:margins="rect(4,4,4,4)"/>
			<v:textRect cx="63.9206" cy="199.757" width="60.01" height="36.8038"/>
			<path d="M0 199.76 L127.84 199.76" class="st19"/>
			<text x="51.23" y="196.16" class="st18" v:langID="1031"><v:paragraph v:horizAlign="1"/><v:tabList/>HTTP<v:newlineChar/><tspan
						x="46.12" dy="1.2em" class="st20">Port 80</tspan></text>		</g>
		<g id="shape71-100" v:mID="71" v:groupContext="shape" transform="translate(164.177,-154.427)">
			<title>Lock</title>
			<v:userDefs>
				<v:ud v:nameU="msvShapeCategories" v:prompt="" v:val="VT4(Icon)"/>
				<v:ud v:nameU="visVersion" v:prompt="" v:val="VT0(15):26"/>
			</v:userDefs>
			<path d="M5.49 204.35 C5.49 204.68 5.29 204.96 5.01 205.09 L5.22 206.78 L4.14 206.78 L4.35 205.09 C4.07 204.96 3.87 204.68
						 3.87 204.35 C3.87 203.9 4.23 203.54 4.68 203.54 C5.13 203.54 5.49 203.9 5.49 204.35 ZM8.64 207.68 L8.64
						 202.64 C8.64 202.44 8.48 202.28 8.28 202.28 L1.08 202.28 C0.88 202.28 0.72 202.44 0.72 202.64 L0.72 207.68
						 C0.72 207.88 0.88 208.04 1.08 208.04 L8.28 208.04 C8.48 208.04 8.64 207.88 8.64 207.68 ZM5.76 200.24 C5.73
						 199.77 5.25 199.4 4.68 199.4 C4.1 199.4 3.63 199.8 3.61 200.31 L3.6 200.31 L3.6 201.56 L5.76 201.56 L5.76
						 200.24 ZM2.16 200.2 C2.16 200.2 2.16 200.84 2.16 201.56 L2.88 201.56 C2.88 200.85 2.88 200.2 2.88 200.2
						 L2.89 200.27 C2.93 199.38 3.72 198.68 4.68 198.68 C5.64 198.68 6.43 199.36 6.48 200.2 C6.48 200.2 6.48 200.85
						 6.48 201.56 L7.2 201.56 C7.2 200.84 7.2 200.2 7.2 200.2 C7.13 198.96 6.03 197.96 4.68 197.96 C3.33 197.96
						 2.23 198.96 2.17 200.24 L2.16 200.2 ZM8.28 201.56 C8.88 201.56 9.36 202.04 9.36 202.64 L9.36 207.68 C9.36
						 208.27 8.88 208.76 8.28 208.76 L1.08 208.76 C0.48 208.76 0 208.27 0 207.68 L0 202.64 C0 202.04 0.48 201.56
						 1.08 201.56 L1.44 201.56 L1.44 200.2 L1.45 200.2 C1.53 198.55 2.94 197.24 4.68 197.24 C6.42 197.24 7.83
						 198.55 7.91 200.2 L7.92 200.2 L7.92 201.56 L8.28 201.56 Z" class="st21"/>
		</g>
		<g id="shape72-102" v:mID="72" v:groupContext="shape" transform="translate(357.677,-154.427)">
			<title>Lock.72</title>
			<v:userDefs>
				<v:ud v:nameU="msvShapeCategories" v:prompt="" v:val="VT4(Icon)"/>
				<v:ud v:nameU="visVersion" v:prompt="" v:val="VT0(15):26"/>
			</v:userDefs>
			<path d="M5.49 204.35 C5.49 204.68 5.29 204.96 5.01 205.09 L5.22 206.78 L4.14 206.78 L4.35 205.09 C4.07 204.96 3.87 204.68
						 3.87 204.35 C3.87 203.9 4.23 203.54 4.68 203.54 C5.13 203.54 5.49 203.9 5.49 204.35 ZM8.64 207.68 L8.64
						 202.64 C8.64 202.44 8.48 202.28 8.28 202.28 L1.08 202.28 C0.88 202.28 0.72 202.44 0.72 202.64 L0.72 207.68
						 C0.72 207.88 0.88 208.04 1.08 208.04 L8.28 208.04 C8.48 208.04 8.64 207.88 8.64 207.68 ZM5.76 200.24 C5.73
						 199.77 5.25 199.4 4.68 199.4 C4.1 199.4 3.63 199.8 3.61 200.31 L3.6 200.31 L3.6 201.56 L5.76 201.56 L5.76
						 200.24 ZM2.16 200.2 C2.16 200.2 2.16 200.84 2.16 201.56 L2.88 201.56 C2.88 200.85 2.88 200.2 2.88 200.2
						 L2.89 200.27 C2.93 199.38 3.72 198.68 4.68 198.68 C5.64 198.68 6.43 199.36 6.48 200.2 C6.48 200.2 6.48 200.85
						 6.48 201.56 L7.2 201.56 C7.2 200.84 7.2 200.2 7.2 200.2 C7.13 198.96 6.03 197.96 4.68 197.96 C3.33 197.96
						 2.23 198.96 2.17 200.24 L2.16 200.2 ZM8.28 201.56 C8.88 201.56 9.36 202.04 9.36 202.64 L9.36 207.68 C9.36
						 208.27 8.88 208.76 8.28 208.76 L1.08 208.76 C0.48 208.76 0 208.27 0 207.68 L0 202.64 C0 202.04 0.48 201.56
						 1.08 201.56 L1.44 201.56 L1.44 200.2 L1.45 200.2 C1.53 198.55 2.94 197.24 4.68 197.24 C6.42 197.24 7.83
						 198.55 7.91 200.2 L7.92 200.2 L7.92 201.56 L8.28 201.56 Z" class="st21"/>
		</g>
		<g id="group74-104" transform="translate(151.007,-46.8038)" v:mID="74" v:groupContext="group">
			<title>DNS</title>
			<desc>Dynamic DNS provider</desc>
			<g id="group75-105" transform="translate(0.695455,-0.618182)" v:mID="75" v:groupContext="group">
				<title>XMLID_3_</title>
				<g id="shape76-106" v:mID="76" v:groupContext="shape">
					<title>XMLID_9_</title>
					<path d="M34.23 191.76 C34.23 187.97 32.92 184.26 30.52 181.25 L30.37 181.09 C30.29 181.02 30.29 180.94 30.21
								 180.86 L29.13 179.7 C25.96 176.46 21.71 174.68 17.15 174.68 L17 174.68 C12.52 174.76 8.35 176.46
								 5.1 179.63 L3.94 180.86 C3.86 180.94 3.86 181.02 3.79 181.09 L3.63 181.17 C1.31 184.18 0 187.89
								 0 191.76 C-0 195.54 1.31 199.25 3.71 202.27 L3.86 202.42 C3.94 202.5 3.94 202.58 4.02 202.65 L5.1
								 203.81 C8.27 206.98 12.44 208.76 17 208.76 L17.15 208.76 C21.64 208.76 25.96 206.98 29.13 203.81
								 L30.21 202.58 C30.29 202.5 30.29 202.42 30.37 202.34 L30.52 202.19 C32.92 199.33 34.23 195.54 34.23
								 191.76 ZM27.28 180.63 C27.2 180.63 27.12 180.71 27.05 180.71 C26.89 180.78 26.74 180.86 26.74 180.86
								 C26.43 181.02 26.12 181.09 25.81 181.17 C25.73 181.17 25.65 181.25 25.58 181.25 C25.19 181.4 24.8
								 181.48 24.42 181.56 C24.34 181.56 24.19 181.63 24.11 181.63 C23.49 180.01 22.72 178.54 21.87 177.46
								 C23.88 178.16 25.73 179.24 27.28 180.63 ZM17 176.69 C18.93 176.69 20.79 178.7 22.18 182.1 C20.63
								 182.41 18.93 182.48 17.15 182.48 C15.38 182.48 13.6 182.33 11.98 182.1 C13.29 178.7 15.15 176.77
								 17 176.69 ZM12.13 177.54 C11.28 178.62 10.59 180.01 9.97 181.63 L9.81 181.63 C9.43 181.48 8.96 181.4
								 8.65 181.33 C8.58 181.33 8.5 181.25 8.42 181.25 C8.11 181.09 7.8 180.94 7.57 180.86 C7.42 180.78
								 7.34 180.78 7.26 180.71 C7.19 180.63 7.11 180.63 6.95 180.55 C8.58 179.32 10.28 178.16 12.13 177.54
								 ZM6.95 202.88 C7.03 202.88 7.11 202.81 7.19 202.81 C7.34 202.73 7.42 202.73 7.5 202.65 C7.8 202.5
								 8.11 202.42 8.42 202.34 C8.5 202.34 8.58 202.27 8.65 202.27 C9.04 202.11 9.43 202.03 9.81 201.96
								 L9.97 201.96 C10.59 203.5 11.36 204.97 12.13 206.05 C10.28 205.28 8.5 204.2 6.95 202.88 ZM17.08
								 206.83 C15.15 206.75 13.29 204.82 11.98 201.49 C13.6 201.18 15.38 201.11 17.15 201.11 C18.93 201.11
								 20.55 201.26 22.18 201.49 C20.86 204.82 18.93 206.83 17.08 206.83 ZM21.95 205.98 C22.8 204.89 23.57
								 203.43 24.19 201.8 C24.26 201.8 24.42 201.88 24.5 201.88 C24.88 202.03 25.35 202.11 25.65 202.19
								 C25.73 202.19 25.81 202.27 25.89 202.27 C26.2 202.42 26.5 202.5 26.81 202.58 C26.97 202.65 27.05
								 202.65 27.12 202.73 C27.2 202.73 27.28 202.81 27.43 202.88 C25.73 204.28 23.88 205.36 21.95 205.98
								 ZM28.82 201.26 C28.59 201.26 28.51 201.18 28.28 201.11 C28.05 201.03 27.82 200.88 27.59 200.8 C27.51
								 200.8 27.43 200.72 27.35 200.72 C26.5 200.41 25.65 200.18 24.73 199.87 C24.96 199.02 25.11 198.25
								 25.27 197.4 L23.26 197.4 C23.1 198.17 22.95 198.87 22.8 199.41 C21.02 199.1 19.09 198.94 17.15 198.94
								 C15.15 198.94 13.21 199.18 11.36 199.48 C11.13 198.79 11.05 198.09 10.9 197.4 L8.89 197.4 C9.04
								 198.25 9.2 199.1 9.43 199.95 C8.58 200.18 7.8 200.41 7.03 200.72 C6.95 200.8 6.8 200.8 6.72 200.88
								 C6.49 200.95 6.26 201.11 6.03 201.18 C5.87 201.18 5.72 201.26 5.56 201.34 C3.55 198.87 2.4 195.85
								 2.16 192.68 L3.86 192.68 L3.86 190.68 L2.16 190.68 C2.4 187.51 3.55 184.57 5.49 182.18 L5.56 182.1
								 C5.72 182.18 5.87 182.25 6.03 182.33 C6.34 182.48 6.49 182.56 6.8 182.64 C6.88 182.64 6.95 182.72
								 7.03 182.72 C7.8 183.03 8.58 183.26 9.5 183.49 C9.27 184.26 9.2 184.96 9.04 185.73 L11.05 185.73
								 C11.2 185.11 11.36 184.42 11.44 183.88 C13.29 184.18 15.22 184.42 17.23 184.42 C19.24 184.42 21.1
								 184.18 22.87 183.95 C23.03 184.49 23.18 185.11 23.26 185.81 L25.27 185.81 C25.11 185.03 24.96 184.34
								 24.8 183.57 C25.65 183.33 26.5 183.1 27.35 182.72 C27.43 182.72 27.59 182.64 27.66 182.64 C27.97
								 182.56 28.13 182.41 28.44 182.33 C28.59 182.25 28.75 182.18 28.9 182.1 C30.91 184.57 32.07 187.58
								 32.3 190.68 L30.29 190.68 L30.29 192.68 L32.3 192.68 C31.91 195.85 30.75 198.94 28.82 201.26 Z"
							class="st22"/>
				</g>
				<g id="shape77-108" v:mID="77" v:groupContext="shape" transform="translate(5.64091,-12.5182)">
					<title>XMLID_6_</title>
					<path d="M7.19 204.12 C7.19 204.97 7.03 205.59 6.88 206.13 C6.65 206.67 6.34 207.13 6.03 207.6 C5.64 207.91 5.18
								 208.22 4.56 208.45 C4.02 208.6 3.32 208.76 2.55 208.76 L0.46 208.76 C0.31 208.76 0.15 208.68 0.08
								 208.6 C-0 208.53 0 208.29 0 208.14 L0 200.41 C-0 200.18 0.08 200.1 0.15 200.03 C0.23 199.95 0.39
								 199.87 0.54 199.87 L2.78 199.87 C3.63 199.87 4.25 199.95 4.79 200.18 C5.33 200.41 5.8 200.64 6.18
								 201.03 C6.57 201.42 6.88 201.88 7.03 202.42 C7.11 202.81 7.19 203.43 7.19 204.12 ZM5.33 204.2 C5.33
								 203.81 5.25 203.35 5.18 203.04 C5.1 202.73 4.87 202.34 4.71 202.11 C4.56 201.88 4.25 201.65 3.86
								 201.49 C3.55 201.34 3.09 201.26 2.47 201.26 L1.7 201.26 L1.7 207.29 L2.63 207.29 C3.09 207.29 3.48
								 207.21 3.86 207.06 C4.17 206.9 4.48 206.75 4.71 206.52 C4.95 206.21 5.1 205.98 5.18 205.59 C5.33
								 205.13 5.33 204.66 5.33 204.2 Z" class="st22"/>
				</g>
				<g id="shape78-110" v:mID="78" v:groupContext="shape" transform="translate(14.0636,-12.5182)">
					<title>XMLID_5_</title>
					<path d="M7.5 207.98 C7.5 208.14 7.5 208.22 7.42 208.29 C7.34 208.37 7.34 208.45 7.26 208.53 C7.19 208.6 7.11
								 208.6 7.03 208.68 C6.95 208.68 6.88 208.76 6.72 208.76 L5.95 208.76 C5.8 208.76 5.64 208.76 5.56
								 208.68 C5.41 208.68 5.33 208.6 5.25 208.45 C5.18 208.37 5.02 208.22 4.95 208.14 C4.87 207.98 4.71
								 207.83 4.64 207.6 L2.47 203.5 C2.32 203.19 2.16 203.04 2.09 202.65 C1.93 202.34 1.78 202.11 1.78
								 201.8 C1.78 202.11 1.78 202.5 1.85 202.73 L1.85 208.37 L1.78 208.53 C1.78 208.6 1.7 208.6 1.62 208.6
								 C1.55 208.6 1.47 208.68 1.31 208.68 L0.46 208.68 C0.31 208.68 0.23 208.68 0.15 208.6 C0.08 208.6
								 0.08 208.53 0 208.53 L0 200.49 C0 200.26 0.08 200.18 0.23 200.03 C0.39 199.87 0.54 199.87 0.7 199.87
								 L1.62 199.87 C1.85 199.87 1.93 199.87 2.01 199.95 C2.16 199.95 2.24 200.03 2.32 200.1 C2.4 200.18
								 2.55 200.26 2.63 200.41 C2.7 200.57 2.78 200.72 2.94 200.88 L4.64 204.04 C4.71 204.28 4.87 204.43
								 4.95 204.58 C5.02 204.82 5.18 204.97 5.25 205.13 C5.33 205.36 5.49 205.43 5.56 205.67 C5.64 205.9
								 5.72 205.98 5.87 206.21 L5.87 200.1 L5.95 199.95 C5.95 199.87 6.03 199.87 6.1 199.87 C6.18 199.87
								 6.26 199.79 6.41 199.79 L7.26 199.79 C7.42 199.79 7.5 199.79 7.57 199.87 C7.65 199.87 7.65 199.95
								 7.73 199.95 L7.73 207.98 L7.5 207.98 Z" class="st22"/>
				</g>
				<g id="shape79-112" v:mID="79" v:groupContext="shape" transform="translate(22.8727,-12.3636)">
					<title>XMLID_4_</title>
					<path d="M5.87 205.9 C5.87 206.36 5.8 206.75 5.56 207.13 C5.33 207.52 5.18 207.75 4.87 207.98 C4.56 208.22 4.25
								 208.37 3.86 208.53 C3.48 208.68 3.01 208.76 2.55 208.76 C2.24 208.76 1.93 208.76 1.7 208.68 C1.47
								 208.6 1.24 208.53 1 208.45 C0.77 208.37 0.7 208.29 0.54 208.22 C0.39 208.14 0.31 208.06 0.23 207.98
								 C0.15 207.91 0.15 207.83 0.08 207.68 C0.08 207.52 0 207.37 0 207.21 L0 206.9 C0 206.83 0 206.67
								 0.08 206.67 C0.08 206.59 0.15 206.59 0.15 206.52 C0.15 206.52 0.23 206.44 0.31 206.44 C0.39 206.44
								 0.46 206.52 0.62 206.59 C0.77 206.67 0.93 206.75 1.08 206.9 C1.31 206.98 1.47 207.13 1.78 207.21
								 C2.09 207.29 2.32 207.37 2.63 207.37 C2.86 207.37 3.01 207.37 3.25 207.29 C3.48 207.21 3.55 207.13
								 3.63 207.06 C3.79 206.98 3.86 206.83 3.94 206.75 C4.02 206.59 4.02 206.44 4.02 206.28 C4.02 206.05
								 3.94 205.98 3.86 205.74 L3.48 205.36 C3.25 205.2 3.17 205.13 2.86 205.05 C2.63 204.97 2.4 204.82
								 2.16 204.74 C1.93 204.58 1.7 204.51 1.47 204.43 C1.24 204.28 1.08 204.12 0.85 203.97 C0.62 203.73
								 0.54 203.58 0.46 203.27 C0.31 202.96 0.31 202.73 0.31 202.34 C0.31 201.96 0.39 201.49 0.54 201.26
								 C0.7 200.95 0.85 200.64 1.16 200.41 C1.47 200.18 1.7 200.1 2.09 199.95 C2.4 199.79 2.86 199.79 3.25
								 199.79 C3.48 199.79 3.63 199.79 3.86 199.87 C4.1 199.87 4.25 199.95 4.48 200.03 C4.71 200.1 4.79
								 200.18 4.95 200.26 C5.1 200.33 5.18 200.41 5.25 200.41 L5.33 200.57 C5.33 200.57 5.33 200.64 5.41
								 200.72 L5.41 201.73 C5.41 201.8 5.33 201.8 5.33 201.88 C5.33 201.88 5.25 201.96 5.18 201.96 C5.1
								 201.96 5.02 201.96 4.95 201.88 L4.56 201.65 C4.4 201.57 4.25 201.49 4.02 201.42 C3.79 201.34 3.63
								 201.34 3.32 201.34 C3.09 201.34 3.01 201.34 2.86 201.42 C2.7 201.49 2.55 201.57 2.55 201.65 C2.47
								 201.73 2.4 201.88 2.32 201.96 C2.24 202.11 2.24 202.27 2.24 202.27 C2.24 202.5 2.32 202.58 2.4 202.73
								 L2.78 203.12 C3.01 203.27 3.17 203.35 3.4 203.43 C3.63 203.5 3.86 203.66 4.1 203.73 C4.33 203.89
								 4.56 203.97 4.79 204.04 C5.02 204.2 5.18 204.35 5.41 204.51 C5.64 204.74 5.72 204.89 5.8 205.2 C5.8
								 205.2 5.87 205.51 5.87 205.9 Z" class="st22"/>
				</g>
			</g>
			<g id="shape74-114" v:mID="74" v:groupContext="groupContent">
				<v:textBlock v:margins="rect(0,0,0,0)" v:verticalAlign="0"/>
				<v:textRect cx="17.85" cy="223.159" width="68.36" height="28.8038"/>
				<text x="-14.97" y="219.56" class="st18" v:langID="1031"><v:paragraph v:horizAlign="1"/><v:tabList/>Dynamic DNS<v:newlineChar/><tspan
							x="-2.87" dy="1.2em" class="st20">provider</tspan></text>			</g>
		</g>
		<g id="shape80-117" v:mID="80" v:groupContext="shape" v:layerMember="0" transform="translate(263.177,-118.032)">
			<title>Dynamic connector.80</title>
			<path d="M0 208.76 L0 262.13 L-76.47 262.13" class="st19"/>
		</g>
		<g id="shape81-120" v:mID="81" v:groupContext="shape" v:layerMember="0" transform="translate(151.007,-64.4993)">
			<title>Dynamic connector.81</title>
			<path d="M0 208.76 L-85.83 208.76 L-85.83 170.38" class="st19"/>
		</g>
	</g>
</svg>
