<?xml version="1.0" encoding="UTF-8" standalone="no"?>
<!DOCTYPE svg PUBLIC "-//W3C//DTD SVG 1.1//EN" "http://www.w3.org/Graphics/SVG/1.1/DTD/svg11.dtd">
<!-- Generated by Microsoft Visio, SVG Export OverviewExampleSetup.svg Page-1 -->
<svg xmlns="http://www.w3.org/2000/svg" xmlns:xlink="http://www.w3.org/1999/xlink" xmlns:ev="http://www.w3.org/2001/xml-events"
		xmlns:v="http://schemas.microsoft.com/visio/2003/SVGExtensions/" width="9.46079in" height="1.5625in"
		viewBox="0 0 681.177 112.5" xml:space="preserve" color-interpolation-filters="sRGB" class="st22">
	<v:documentProperties v:langID="1033" v:viewMarkup="false"/>

	<style type="text/css">
	<![CDATA[
		.st1 {fill:#ffffff;stroke:none;stroke-linecap:butt;stroke-width:4}
		.st2 {fill:#288e15;stroke:none;stroke-linecap:butt;stroke-width:4}
		.st3 {fill:#000000;stroke:none;stroke-linecap:butt;stroke-width:3.7029}
		.st4 {fill:#83c558;stroke:none;stroke-linecap:butt;stroke-width:4}
		.st5 {fill:#3fa523;stroke:none;stroke-linecap:butt;stroke-width:4}
		.st6 {fill:#33b182;stroke:none;stroke-linecap:butt;stroke-width:3.67575}
		.st7 {fill:#33b182;stroke:none;stroke-linecap:butt;stroke-width:2.32988}
		.st8 {fill:#0093c5;stroke:none;stroke-linecap:butt;stroke-width:4}
		.st9 {fill:#fca03a;stroke:none;stroke-linecap:butt;stroke-width:4}
		.st10 {fill:#e44242;stroke:none;stroke-linecap:butt;stroke-width:4}
		.st11 {fill:#4f4f4a;stroke:none;stroke-linecap:butt;stroke-width:4}
		.st12 {fill:#feffff;font-family:Calibri;font-size:1.00001em}
		.st13 {fill:#83c558;stroke:#ffffff;stroke-linecap:round;stroke-linejoin:round;stroke-width:0.5}
		.st14 {fill:#ffffff;font-family:Calibri;font-size:1.00001em}
		.st15 {fill:#73ae42;stroke:#ffffff;stroke-linecap:round;stroke-linejoin:round;stroke-width:0.5}
		.st16 {fill:#aad288;stroke:#ffffff;stroke-linecap:round;stroke-linejoin:round;stroke-width:0.5}
		.st17 {fill:#ffffff}
		.st18 {fill:#73ae42;font-family:Calibri;font-size:1.00001em}
		.st19 {stroke:#73ae42;stroke-linecap:round;stroke-linejoin:round;stroke-width:0.5}
		.st20 {font-size:1em}
		.st21 {fill:#73ae42;stroke:#73ae42;stroke-linecap:butt;stroke-width:0.75}
		.st22 {fill:none;fill-rule:evenodd;font-size:12px;overflow:visible;stroke-linecap:square;stroke-miterlimit:3}
	]]>
	</style>

	<g v:mID="0" v:index="1" v:groupContext="foregroundPage">
		<title>Page-1</title>
		<v:pageProperties v:drawingScale="1" v:pageScale="1" v:drawingUnits="0" v:shadowOffsetX="9" v:shadowOffsetY="-9"/>
		<v:layer v:name="Connector" v:index="0"/>
		<g id="group1-1" transform="translate(582.823,-24.8105)" v:mID="1" v:groupContext="group">
			<title>Sheet.1</title>
			<desc>Miniserver</desc>
			<g id="group2-2" v:mID="2" v:groupContext="group">
				<title>layer1</title>
				<g id="shape3-3" v:mID="3" v:groupContext="shape" transform="translate(14.3833,-9.81778E-06)">
					<title>rect3715</title>
					<rect x="0" y="82.5828" width="39.6978" height="29.9172" class="st1"/>
				</g>
				<g id="shape4-5" v:mID="4" v:groupContext="shape" transform="translate(4.71623E-13,-50.9795)">
					<title>rect4787</title>
					<rect x="0" y="105.735" width="94.3543" height="6.76462" class="st2"/>
				</g>
				<g id="shape5-7" v:mID="5" v:groupContext="shape" transform="translate(20.4435,-50.9795)">
					<title>rect4686</title>
					<rect x="0" y="105.735" width="4.97955" height="6.76462" class="st3"/>
				</g>
				<g id="shape6-9" v:mID="6" v:groupContext="shape" transform="translate(30.5022,-50.9795)">
					<title>rect4686-0</title>
					<rect x="0" y="105.735" width="4.97955" height="6.76462" class="st3"/>
				</g>
				<g id="shape7-11" v:mID="7" v:groupContext="shape" transform="translate(40.5608,-50.9795)">
					<title>rect4686-0-8</title>
					<rect x="0" y="105.735" width="4.97955" height="6.76462" class="st3"/>
				</g>
				<g id="shape8-13" v:mID="8" v:groupContext="shape" transform="translate(50.6195,-50.9795)">
					<title>rect4686-0-9</title>
					<rect x="0" y="105.735" width="4.97955" height="6.76462" class="st3"/>
				</g>
				<g id="shape9-15" v:mID="9" v:groupContext="shape" transform="translate(60.6782,-50.9795)">
					<title>rect4686-0-8-4</title>
					<rect x="0" y="105.735" width="4.97955" height="6.76462" class="st3"/>
				</g>
				<g id="shape10-17" v:mID="10" v:groupContext="shape" transform="translate(70.7369,-50.9795)">
					<title>rect4686-0-4</title>
					<rect x="0" y="105.735" width="4.97955" height="6.76462" class="st3"/>
				</g>
				<g id="shape11-19" v:mID="11" v:groupContext="shape" transform="translate(80.7955,-50.9795)">
					<title>rect4686-0-8-8</title>
					<rect x="0" y="105.735" width="4.97955" height="6.76462" class="st3"/>
				</g>
				<g id="shape12-21" v:mID="12" v:groupContext="shape" transform="translate(4.71623E-13,-17.6147)">
					<title>rect4781</title>
					<rect x="0" y="84.8841" width="94.3543" height="27.6159" class="st4"/>
				</g>
				<g id="shape13-23" v:mID="13" v:groupContext="shape" transform="translate(4.71623E-13,-45.2306)">
					<title>rect4783</title>
					<rect x="0" y="106.751" width="94.3543" height="5.74884" class="st5"/>
				</g>
				<g id="shape14-25" v:mID="14" v:groupContext="shape" transform="translate(23.1571,-57.7441)">
					<title>rect4797</title>
					<rect x="0" y="107.399" width="29.6296" height="5.10127" class="st6"/>
				</g>
				<g id="shape15-27" v:mID="15" v:groupContext="shape" transform="translate(0,-5.10127)">
					<title>rect4787-2</title>
					<rect x="0" y="105.735" width="94.3543" height="6.76462" class="st2"/>
				</g>
				<g id="shape16-29" v:mID="16" v:groupContext="shape" transform="translate(20.4435,-5.10127)">
					<title>rect4686-30</title>
					<rect x="0" y="105.735" width="4.97955" height="6.76462" class="st3"/>
				</g>
				<g id="shape17-31" v:mID="17" v:groupContext="shape" transform="translate(30.5022,-5.10127)">
					<title>rect4686-0-3</title>
					<rect x="0" y="105.735" width="4.97955" height="6.76462" class="st3"/>
				</g>
				<g id="shape18-33" v:mID="18" v:groupContext="shape" transform="translate(40.5608,-5.10127)">
					<title>rect4686-0-8-0</title>
					<rect x="0" y="105.735" width="4.97955" height="6.76462" class="st3"/>
				</g>
				<g id="shape19-35" v:mID="19" v:groupContext="shape" transform="translate(50.6195,-5.10127)">
					<title>rect4686-0-9-1</title>
					<rect x="0" y="105.735" width="4.97955" height="6.76462" class="st3"/>
				</g>
				<g id="shape20-37" v:mID="20" v:groupContext="shape" transform="translate(60.6782,-5.10127)">
					<title>rect4686-0-8-4-9</title>
					<rect x="0" y="105.735" width="4.97955" height="6.76462" class="st3"/>
				</g>
				<g id="shape21-39" v:mID="21" v:groupContext="shape" transform="translate(70.7369,-5.10127)">
					<title>rect4686-0-4-6</title>
					<rect x="0" y="105.735" width="4.97955" height="6.76462" class="st3"/>
				</g>
				<g id="shape22-41" v:mID="22" v:groupContext="shape" transform="translate(80.7956,-5.10127)">
					<title>rect4686-0-8-8-4</title>
					<rect x="0" y="105.735" width="4.97955" height="6.76462" class="st3"/>
				</g>
				<g id="shape23-43" v:mID="23" v:groupContext="shape" transform="translate(0,-11.8659)">
					<title>rect4783-3</title>
					<rect x="0" y="106.751" width="94.3543" height="5.74884" class="st5"/>
				</g>
				<g id="shape24-45" v:mID="24" v:groupContext="shape" transform="translate(14.3833,4.26326E-14)">
					<title>rect4797-0</title>
					<rect x="0" y="107.399" width="11.9042" height="5.10127" class="st7"/>
				</g>
				<g id="shape25-47" v:mID="25" v:groupContext="shape" transform="translate(26.1759,-1.37753E-05)">
					<title>rect4871</title>
					<rect x="0" y="107.399" width="6.30572" height="5.10127" class="st8"/>
				</g>
				<g id="shape26-49" v:mID="26" v:groupContext="shape" transform="translate(52.7866,-57.7441)">
					<title>rect4873</title>
					<rect x="0" y="107.365" width="18.5544" height="5.13487" class="st9"/>
				</g>
				<g id="shape27-51" v:mID="27" v:groupContext="shape" transform="translate(38.2788,-1.88745E-05)">
					<title>rect4891</title>
					<rect x="0" y="107.399" width="47.7506" height="5.10125" class="st10"/>
				</g>
				<g id="shape28-53" v:mID="28" v:groupContext="shape" transform="translate(71.341,-57.7441)">
					<title>rect4897</title>
					<rect x="0" y="107.365" width="14.6883" height="5.13487" class="st11"/>
				</g>
			</g>
			<g id="shape1-55" v:mID="1" v:groupContext="groupContent">
				<v:textBlock v:margins="rect(0,0,0,0)"/>
				<v:textRect cx="47.1772" cy="81.0605" width="94.36" height="62.879"/>
				<text x="20.93" y="84.66" class="st12" v:langID="1031"><v:paragraph v:horizAlign="1"/><v:tabList/>Miniserver</text>			</g>
		</g>
		<g id="group29-57" v:mID="29" v:groupContext="group">
			<v:custProps>
				<v:cp v:nameU="ShapeClass" v:lbl="ShapeClass" v:prompt="" v:type="0" v:format="" v:sortKey="" v:invis="true"
						v:ask="false" v:langID="1033" v:cal="0" v:val="VT4(Location)"/>
				<v:cp v:nameU="ShapeType" v:lbl="ShapeType" v:prompt="" v:type="0" v:format="" v:sortKey="" v:invis="true"
						v:ask="false" v:langID="1033" v:cal="0" v:val="VT4(Cloud)"/>
			</v:custProps>
			<v:userDefs>
				<v:ud v:nameU="visVersion" v:prompt="" v:val="VT0(15):26"/>
				<v:ud v:nameU="ShapeClass" v:prompt="" v:val="VT0(5):26"/>
				<v:ud v:nameU="SolSH" v:prompt="" v:val="VT15({BF0433D9-CD73-4EB5-8390-8653BE590246}):41"/>
				<v:ud v:nameU="visLegendShape" v:prompt="" v:val="VT0(2):26"/>
			</v:userDefs>
			<title>Cloud</title>
			<desc>Internet</desc>
			<g id="shape30-58" v:mID="30" v:groupContext="shape" transform="translate(0,-24.0009)">
				<title>Sheet.30</title>
				<path d="M81.41 65.57 C80.9 60.26 76.85 56.1 71.87 56.1 C70.45 56.1 69.12 56.45 67.91 57.05 C65.57 51.83 60.72 48
							 51.62 48.31 C39.8 48.71 25.8 55.06 22.98 66.31 C19.61 67.08 17.45 69.26 16.15 72.16 C15.63 72.1 15.1
							 72.06 14.55 72.06 C6.76 72.06 0.78 78.83 0.44 87.17 C0 97.96 6.76 102.29 14.55 102.29 C15.66 102.29
							 16.74 102.14 17.78 101.87 C19.39 103.13 21.5 103.9 23.81 103.9 C25.95 103.9 27.92 103.24 29.48 102.14
							 C32.48 108.22 38.64 112.5 45.74 112 C53.22 111.48 57.71 109.58 60.36 106.65 C60.52 106.63 60.68 106.63
							 60.85 106.6 C69.21 105.32 72.88 102.74 74.06 98.49 C74.28 98.5 74.51 98.5 74.73 98.5 C85.57 98.5 94.35
							 94.73 94.35 81.5 C94.35 74.16 88.94 67.95 81.41 65.57 Z" class="st13"/>
			</g>
			<g id="shape29-60" v:mID="29" v:groupContext="groupContent">
				<v:textBlock v:margins="rect(4,4,4,4)"/>
				<v:textRect cx="47.1772" cy="56.3105" width="50.52" height="22.4037"/>
				<text x="27.28" y="59.91" class="st14" v:langID="1031"><v:paragraph v:horizAlign="1"/><v:tabList/>Internet</text>			</g>
		</g>
		<g id="group58-62" transform="translate(209.177,-20.25)" v:mID="58" v:groupContext="group">
			<v:custProps>
				<v:cp v:nameU="AssetNumber" v:lbl="Asset Number" v:prompt="" v:type="0" v:format="" v:sortKey="Asset"
						v:invis="false" v:ask="false" v:langID="1033" v:cal="0"/>
				<v:cp v:nameU="SerialNumber" v:lbl="Serial Number" v:prompt="" v:type="0" v:format="" v:sortKey="Asset"
						v:invis="false" v:ask="false" v:langID="1033" v:cal="0"/>
				<v:cp v:nameU="Location" v:lbl="Location" v:prompt="" v:type="0" v:format="" v:sortKey="Asset" v:invis="false"
						v:ask="false" v:langID="1033" v:cal="0"/>
				<v:cp v:nameU="Building" v:lbl="Building" v:prompt="" v:type="0" v:format="" v:sortKey="Asset" v:invis="false"
						v:ask="false" v:langID="1033" v:cal="0"/>
				<v:cp v:nameU="Room" v:lbl="Room" v:prompt="" v:type="0" v:format="" v:sortKey="Asset" v:invis="false"
						v:ask="false" v:langID="1033" v:cal="0"/>
				<v:cp v:nameU="Manufacturer" v:lbl="Manufacturer" v:prompt="" v:type="0" v:format="" v:sortKey="Equipment"
						v:invis="false" v:ask="false" v:langID="1033" v:cal="0"/>
				<v:cp v:nameU="ProductNumber" v:lbl="Product Number" v:prompt="" v:type="0" v:format="" v:sortKey="Equipment"
						v:invis="false" v:ask="false" v:langID="1033" v:cal="0"/>
				<v:cp v:nameU="PartNumber" v:lbl="Part Number" v:prompt="" v:type="0" v:format="" v:sortKey="Equipment"
						v:invis="false" v:ask="false" v:langID="1033" v:cal="0"/>
				<v:cp v:nameU="ProductDescription" v:lbl="Product Description" v:prompt="" v:type="0" v:format=""
						v:sortKey="Equipment" v:invis="false" v:ask="false" v:langID="1033" v:cal="0"/>
				<v:cp v:nameU="NetworkName" v:lbl="Network Name" v:prompt="" v:type="0" v:format="" v:sortKey="Network"
						v:invis="false" v:ask="false" v:langID="1033" v:cal="0"/>
				<v:cp v:nameU="IPAddress" v:lbl="IP Address" v:prompt="" v:type="0" v:format="" v:sortKey="Network" v:invis="false"
						v:ask="false" v:langID="1033" v:cal="0"/>
				<v:cp v:nameU="SubnetMask" v:lbl="Subnet Mask" v:prompt="" v:type="0" v:format="" v:sortKey="Network"
						v:invis="false" v:ask="false" v:langID="1033" v:cal="0"/>
				<v:cp v:nameU="AdminInterface" v:lbl="Administrative Interface" v:prompt="" v:type="0" v:format=""
						v:sortKey="Network" v:invis="false" v:ask="false" v:langID="1033" v:cal="0"/>
				<v:cp v:nameU="NumberofPorts" v:lbl="Number of Ports" v:prompt="" v:type="0" v:format="" v:sortKey="Network"
						v:invis="false" v:ask="false" v:langID="1033" v:cal="0"/>
				<v:cp v:nameU="CommunityString" v:lbl="Community String" v:prompt="" v:type="0" v:format="" v:sortKey="Network"
						v:invis="false" v:ask="false" v:langID="1033" v:cal="0"/>
				<v:cp v:nameU="NetworkDescription" v:lbl="Network Description" v:prompt="" v:type="0" v:format=""
						v:sortKey="Network" v:invis="false" v:ask="false" v:langID="1033" v:cal="0"/>
				<v:cp v:nameU="MACAddress" v:lbl="MAC Address" v:prompt="" v:type="0" v:format="" v:sortKey="Network"
						v:invis="false" v:ask="false" v:langID="1033" v:cal="0"/>
				<v:cp v:nameU="ShapeClass" v:lbl="ShapeClass" v:prompt="" v:type="0" v:format="" v:sortKey="" v:invis="true"
						v:ask="false" v:langID="1033" v:cal="0" v:val="VT4(Equipment)"/>
				<v:cp v:nameU="ShapeType" v:lbl="ShapeType" v:prompt="" v:type="0" v:format="" v:sortKey="" v:invis="true"
						v:ask="false" v:langID="1033" v:cal="0" v:val="VT4(Device)"/>
				<v:cp v:nameU="SubShapeType" v:lbl="SubShapeType" v:prompt="" v:type="0" v:format="" v:sortKey="" v:invis="true"
						v:ask="false" v:langID="1033" v:cal="0" v:val="VT4(Router)"/>
			</v:custProps>
			<v:userDefs>
				<v:ud v:nameU="visVersion" v:prompt="" v:val="VT0(15):26"/>
				<v:ud v:nameU="ShapeClass" v:prompt="" v:val="VT0(5):26"/>
				<v:ud v:nameU="SolSH" v:prompt="" v:val="VT15({BF0433D9-CD73-4EB5-8390-8653BE590246}):41"/>
				<v:ud v:nameU="visLegendShape" v:prompt="" v:val="VT0(2):26"/>
			</v:userDefs>
			<title>Router</title>
			<desc>Router</desc>
			<g id="shape59-63" v:mID="59" v:groupContext="shape" transform="translate(0,-19.5246)">
				<title>Sheet.59</title>
				<path d="M66.41 112.5 L67.85 109.62 L4.07 109.62 L5.51 112.5 L66.41 112.5 ZM72 79.55 L0 79.55 L0 108.42 L72 108.42
							 L72 79.55 Z" class="st15"/>
			</g>
			<g id="shape60-65" v:mID="60" v:groupContext="shape" transform="translate(49.0975,-29.3116)">
				<title>Sheet.60</title>
				<rect x="0" y="94.7131" width="18.7423" height="17.7869" class="st16"/>
			</g>
			<g id="shape61-67" v:mID="61" v:groupContext="shape" transform="translate(8.09064,-33.3961)">
				<title>Sheet.61</title>
				<v:userDefs>
					<v:ud v:nameU="SurroundingRegionColor" v:prompt="" v:val="VT0(1):26"/>
					<v:ud v:nameU="SurroundingRegionColor" v:prompt="" v:val="VT5(#73ae42)"/>
				</v:userDefs>
				<path d="M5.07 102.94 L0 102.94 L0 105.37 L1.32 105.37 L1.32 106.63 L3.75 106.63 L3.75 105.37 L5.07 105.37 L5.07
							 102.94 ZM13.2 102.94 L8.14 102.94 L8.14 105.37 L9.45 105.37 L9.45 106.63 L11.89 106.63 L11.89 105.37
							 L13.2 105.37 L13.2 102.94 ZM21.34 102.94 L16.27 102.94 L16.27 105.37 L17.59 105.37 L17.59 106.63 L20.02
							 106.63 L20.02 105.37 L21.34 105.37 L21.34 102.94 ZM29.48 102.94 L24.41 102.94 L24.41 105.37 L25.73 105.37
							 L25.73 106.63 L28.16 106.63 L28.16 105.37 L29.48 105.37 L29.48 102.94 ZM29.48 108.8 L24.41 108.8 L24.41
							 111.24 L25.73 111.24 L25.73 112.5 L28.16 112.5 L28.16 111.24 L29.48 111.24 L29.48 108.8 ZM21.34 108.8
							 L16.27 108.8 L16.27 111.24 L17.59 111.24 L17.59 112.5 L20.02 112.5 L20.02 111.24 L21.34 111.24 L21.34
							 108.8 ZM13.2 108.8 L8.14 108.8 L8.14 111.24 L9.45 111.24 L9.45 112.5 L11.89 112.5 L11.89 111.24 L13.2
							 111.24 L13.2 108.8 ZM5.07 108.8 L0 108.8 L0 111.24 L1.32 111.24 L1.32 112.5 L3.75 112.5 L3.75 111.24
							 L5.07 111.24 L5.07 108.8 Z" class="st17"/>
			</g>
			<g id="shape62-70" v:mID="62" v:groupContext="shape" transform="translate(50.5519,-30.3563)">
				<title>Sheet.62</title>
				<v:userDefs>
					<v:ud v:nameU="SurroundingRegionColor" v:prompt="" v:val="VT0(1):26"/>
					<v:ud v:nameU="SurroundingRegionColor" v:prompt="" v:val="VT5(#aad288)"/>
				</v:userDefs>
				<path d="M7.55 110.63 L6.28 109.35 L6.28 110.84 L8.09 112.5 L9.89 110.85 L9.89 109.34 L8.63 110.62 L8.63 106.23 L7.55
							 106.23 L7.55 110.63 ZM11.78 104.12 L13.06 102.85 L11.57 102.85 L9.9 104.65 L11.56 106.46 L13.06 106.46
							 L11.79 105.2 L16.17 105.2 L16.17 104.12 L11.78 104.12 ZM8.62 98.67 L9.89 99.96 L9.89 98.47 L8.09 96.8
							 L6.28 98.46 L6.28 99.96 L7.54 98.69 L7.54 103.07 L8.62 103.07 L8.62 98.67 ZM4.4 105.19 L3.12 106.46
							 L4.61 106.46 L6.27 104.65 L4.62 102.85 L3.11 102.85 L4.39 104.11 L0 104.11 L0 105.19 L4.4 105.19 Z"
						class="st17"/>
			</g>
			<g id="shape58-73" v:mID="58" v:groupContext="groupContent">
				<v:textBlock v:margins="rect(4,4,4,4)"/>
				<v:textRect cx="36" cy="54.0605" width="44.04" height="22.4037"/>
				<text x="19.34" y="57.66" class="st18" v:langID="1031"><v:paragraph v:horizAlign="1"/><v:tabList/>Router</text>			</g>
		</g>
		<g id="shape64-75" v:mID="64" v:groupContext="shape" v:layerMember="0" transform="translate(94.3015,-47.25)">
			<title>Dynamic connector</title>
			<desc>HTTPS Port 443</desc>
			<v:textBlock v:margins="rect(4,4,4,4)"/>
			<v:textRect cx="57.4378" cy="103.5" width="60.01" height="36.8038"/>
			<path d="M0 103.5 L114.88 103.5" class="st19"/>
			<text x="42" y="99.9" class="st18" v:langID="1031"><v:paragraph v:horizAlign="1"/><v:tabList/>HTTPS<v:lf/><tspan
						x="36.59" dy="1.2em" class="st20">Port 443</tspan></text>		</g>
		<g id="group65-80" transform="translate(378,-5.66143)" v:mID="65" v:groupContext="group">
			<v:custProps>
				<v:cp v:nameU="AssetNumber" v:lbl="Asset Number" v:prompt="" v:type="0" v:format="" v:sortKey="Asset"
						v:invis="false" v:ask="false" v:langID="1033" v:cal="0"/>
				<v:cp v:nameU="SerialNumber" v:lbl="Serial Number" v:prompt="" v:type="0" v:format="" v:sortKey="Asset"
						v:invis="false" v:ask="false" v:langID="1033" v:cal="0"/>
				<v:cp v:nameU="Location" v:lbl="Location" v:prompt="" v:type="0" v:format="" v:sortKey="Asset" v:invis="false"
						v:ask="false" v:langID="1033" v:cal="0"/>
				<v:cp v:nameU="Building" v:lbl="Building" v:prompt="" v:type="0" v:format="" v:sortKey="Asset" v:invis="false"
						v:ask="false" v:langID="1033" v:cal="0"/>
				<v:cp v:nameU="Room" v:lbl="Room" v:prompt="" v:type="0" v:format="" v:sortKey="Asset" v:invis="false"
						v:ask="false" v:langID="1033" v:cal="0"/>
				<v:cp v:nameU="Manufacturer" v:lbl="Manufacturer" v:prompt="" v:type="0" v:format="" v:sortKey="Equipment"
						v:invis="false" v:ask="false" v:langID="1033" v:cal="0"/>
				<v:cp v:nameU="ProductNumber" v:lbl="Product Number" v:prompt="" v:type="0" v:format="" v:sortKey="Equipment"
						v:invis="false" v:ask="false" v:langID="1033" v:cal="0"/>
				<v:cp v:nameU="PartNumber" v:lbl="Part Number" v:prompt="" v:type="0" v:format="" v:sortKey="Equipment"
						v:invis="false" v:ask="false" v:langID="1033" v:cal="0"/>
				<v:cp v:nameU="ProductDescription" v:lbl="Product Description" v:prompt="" v:type="0" v:format=""
						v:sortKey="Equipment" v:invis="false" v:ask="false" v:langID="1033" v:cal="0"/>
				<v:cp v:nameU="NetworkName" v:lbl="Network Name" v:prompt="" v:type="0" v:format="" v:sortKey="Network"
						v:invis="false" v:ask="false" v:langID="1033" v:cal="0"/>
				<v:cp v:nameU="IPAddress" v:lbl="IP Address" v:prompt="" v:type="0" v:format="" v:sortKey="Network" v:invis="false"
						v:ask="false" v:langID="1033" v:cal="0"/>
				<v:cp v:nameU="SubnetMask" v:lbl="Subnet Mask" v:prompt="" v:type="0" v:format="" v:sortKey="Network"
						v:invis="false" v:ask="false" v:langID="1033" v:cal="0"/>
				<v:cp v:nameU="AdminInterface" v:lbl="Administrative Interface" v:prompt="" v:type="0" v:format=""
						v:sortKey="Network" v:invis="false" v:ask="false" v:langID="1033" v:cal="0"/>
				<v:cp v:nameU="NumberofPorts" v:lbl="Number of Ports" v:prompt="" v:type="0" v:format="" v:sortKey="Network"
						v:invis="false" v:ask="false" v:langID="1033" v:cal="0"/>
				<v:cp v:nameU="CommunityString" v:lbl="Community String" v:prompt="" v:type="0" v:format="" v:sortKey="Network"
						v:invis="false" v:ask="false" v:langID="1033" v:cal="0"/>
				<v:cp v:nameU="NetworkDescription" v:lbl="Network Description" v:prompt="" v:type="0" v:format=""
						v:sortKey="Network" v:invis="false" v:ask="false" v:langID="1033" v:cal="0"/>
				<v:cp v:nameU="MACAddress" v:lbl="MAC Address" v:prompt="" v:type="0" v:format="" v:sortKey="Network"
						v:invis="false" v:ask="false" v:langID="1033" v:cal="0"/>
				<v:cp v:nameU="CPU" v:lbl="CPU" v:prompt="" v:type="0" v:format="" v:sortKey="Workstation" v:invis="false"
						v:ask="false" v:langID="1033" v:cal="0"/>
				<v:cp v:nameU="Memory" v:lbl="Memory" v:prompt="" v:type="0" v:format="" v:sortKey="Workstation" v:invis="false"
						v:ask="false" v:langID="1033" v:cal="0"/>
				<v:cp v:nameU="OperatingSystem" v:lbl="Operating System" v:prompt="" v:type="0" v:format="" v:sortKey="Workstation"
						v:invis="false" v:ask="false" v:langID="1033" v:cal="0"/>
				<v:cp v:nameU="HardDriveSize" v:lbl="Hard Drive Capacity" v:prompt="" v:type="0" v:format=""
						v:sortKey="Workstation" v:invis="false" v:ask="false" v:langID="1033" v:cal="0"/>
				<v:cp v:nameU="Department" v:lbl="Department" v:prompt="" v:type="0" v:format="" v:sortKey="" v:invis="false"
						v:ask="false" v:langID="1033" v:cal="0"/>
				<v:cp v:nameU="ShapeClass" v:lbl="ShapeClass" v:prompt="" v:type="0" v:format="" v:sortKey="" v:invis="true"
						v:ask="false" v:langID="1033" v:cal="0" v:val="VT4(Equipment)"/>
				<v:cp v:nameU="ShapeType" v:lbl="ShapeType" v:prompt="" v:type="0" v:format="" v:sortKey="" v:invis="true"
						v:ask="false" v:langID="1033" v:cal="0" v:val="VT4(Server)"/>
				<v:cp v:nameU="BelongsTo" v:lbl="Belongs To" v:prompt="" v:type="0" v:format="" v:sortKey="" v:invis="true"
						v:ask="false" v:langID="1033" v:cal="0"/>
			</v:custProps>
			<v:userDefs>
				<v:ud v:nameU="visVersion" v:prompt="" v:val="VT0(15):26"/>
				<v:ud v:nameU="ShapeClass" v:prompt="" v:val="VT0(5):26"/>
				<v:ud v:nameU="SolSH" v:prompt="" v:val="VT15({BF0433D9-CD73-4EB5-8390-8653BE590246}):41"/>
				<v:ud v:nameU="visLegendShape" v:prompt="" v:val="VT0(2):26"/>
			</v:userDefs>
			<title>Server</title>
			<desc>Server loxwebhook</desc>
			<g id="shape66-81" v:mID="66" v:groupContext="shape" transform="translate(18.2938,0)">
				<title>Sheet.66</title>
				<rect x="0" y="11.3229" width="64.5895" height="101.177" class="st15"/>
			</g>
			<g id="shape67-83" v:mID="67" v:groupContext="shape" transform="translate(66.5675,-43.1905)">
				<title>Sheet.67</title>
				<ellipse cx="3.90443" cy="108.596" rx="3.90443" ry="3.90443" class="st16"/>
			</g>
			<g id="shape68-85" v:mID="68" v:groupContext="shape" transform="translate(42.8738,-16.585)">
				<title>Sheet.68</title>
				<v:userDefs>
					<v:ud v:nameU="SurroundingRegionColor" v:prompt="" v:val="VT0(1):26"/>
					<v:ud v:nameU="SurroundingRegionColor" v:prompt="" v:val="VT5(#73ae42)"/>
				</v:userDefs>
				<path d="M-0 112.5 L31.5 112.5 L31.5 109.97 L-0 109.97 L-0 112.5 ZM-0 104.83 L31.5 104.83 L31.5 102.3 L-0 102.3 L-0
							 104.83 ZM-0 97.16 L31.5 97.16 L31.5 94.63 L-0 94.63 L-0 97.16 Z" class="st17"/>
			</g>
			<g id="shape65-88" v:mID="65" v:groupContext="groupContent">
				<v:textBlock v:margins="rect(4,4,4,4)"/>
				<v:textRect cx="50.5886" cy="43.0257" width="70.27" height="36.8038"/>
				<text x="34.97" y="39.43" class="st12" v:langID="1031"><v:paragraph v:horizAlign="1"/><v:tabList/>Server<v:newlineChar/><tspan
							x="20.81" dy="1.2em" class="st20">loxwebhook</tspan></text>			</g>
		</g>
		<g id="shape69-91" v:mID="69" v:groupContext="shape" v:layerMember="0" transform="translate(281.177,-47.25)">
			<title>Dynamic connector.69</title>
			<desc>HTTPS Port 4443</desc>
			<v:textBlock v:margins="rect(4,4,4,4)"/>
			<v:textRect cx="57.5583" cy="103.5" width="60.01" height="36.8038"/>
			<path d="M0 103.5 L115.12 103.5" class="st19"/>
			<text x="42.12" y="99.9" class="st18" v:langID="1031"><v:paragraph v:horizAlign="1"/><v:tabList/>HTTPS<v:lf/><tspan
						x="33.67" dy="1.2em" class="st20">Port 4443</tspan></text>		</g>
		<g id="shape70-96" v:mID="70" v:groupContext="shape" v:layerMember="0" transform="translate(460.883,-47.2332)">
			<title>Dynamic connector.70</title>
			<desc>HTTP Port 80</desc>
			<v:textBlock v:margins="rect(4,4,4,4)"/>
			<v:textRect cx="60.9698" cy="103.5" width="60.01" height="36.8038"/>
			<path d="M0 103.5 L121.94 103.5" class="st19"/>
			<text x="48.28" y="99.9" class="st18" v:langID="1031"><v:paragraph v:horizAlign="1"/><v:tabList/>HTTP<v:newlineChar/><tspan
						x="43.17" dy="1.2em" class="st20">Port 80</tspan></text>		</g>
		<g id="shape71-101" v:mID="71" v:groupContext="shape" transform="translate(146.177,-76.1695)">
			<title>Lock</title>
			<v:userDefs>
				<v:ud v:nameU="msvShapeCategories" v:prompt="" v:val="VT4(Icon)"/>
				<v:ud v:nameU="visVersion" v:prompt="" v:val="VT0(15):26"/>
			</v:userDefs>
			<path d="M5.49 108.09 C5.49 108.42 5.29 108.7 5.01 108.83 L5.22 110.52 L4.14 110.52 L4.35 108.83 C4.07 108.7 3.87 108.42
						 3.87 108.09 C3.87 107.64 4.23 107.28 4.68 107.28 C5.13 107.28 5.49 107.64 5.49 108.09 ZM8.64 111.42 L8.64
						 106.38 C8.64 106.18 8.48 106.02 8.28 106.02 L1.08 106.02 C0.88 106.02 0.72 106.18 0.72 106.38 L0.72 111.42
						 C0.72 111.62 0.88 111.78 1.08 111.78 L8.28 111.78 C8.48 111.78 8.64 111.62 8.64 111.42 ZM5.76 103.98 C5.73
						 103.52 5.25 103.14 4.68 103.14 C4.1 103.14 3.63 103.54 3.61 104.05 L3.6 104.05 L3.6 105.3 L5.76 105.3 L5.76
						 103.98 ZM2.16 103.94 C2.16 103.94 2.16 104.59 2.16 105.3 L2.88 105.3 C2.88 104.59 2.88 103.94 2.88 103.94
						 L2.89 104.02 C2.93 103.12 3.72 102.42 4.68 102.42 C5.64 102.42 6.43 103.11 6.48 103.94 C6.48 103.94 6.48
						 104.59 6.48 105.3 L7.2 105.3 C7.2 104.59 7.2 103.94 7.2 103.94 C7.13 102.7 6.03 101.7 4.68 101.7 C3.33 101.7
						 2.23 102.7 2.17 103.98 L2.16 103.94 ZM8.28 105.3 C8.88 105.3 9.36 105.78 9.36 106.38 L9.36 111.42 C9.36
						 112.02 8.88 112.5 8.28 112.5 L1.08 112.5 C0.48 112.5 0 112.02 0 111.42 L0 106.38 C0 105.78 0.48 105.3 1.08
						 105.3 L1.44 105.3 L1.44 103.94 L1.45 103.94 C1.53 102.29 2.94 100.98 4.68 100.98 C6.42 100.98 7.83 102.29
						 7.91 103.94 L7.92 103.94 L7.92 105.3 L8.28 105.3 Z" class="st21"/>
		</g>
		<g id="shape72-103" v:mID="72" v:groupContext="shape" transform="translate(339.677,-76.1695)">
			<title>Lock.72</title>
			<v:userDefs>
				<v:ud v:nameU="msvShapeCategories" v:prompt="" v:val="VT4(Icon)"/>
				<v:ud v:nameU="visVersion" v:prompt="" v:val="VT0(15):26"/>
			</v:userDefs>
			<path d="M5.49 108.09 C5.49 108.42 5.29 108.7 5.01 108.83 L5.22 110.52 L4.14 110.52 L4.35 108.83 C4.07 108.7 3.87 108.42
						 3.87 108.09 C3.87 107.64 4.23 107.28 4.68 107.28 C5.13 107.28 5.49 107.64 5.49 108.09 ZM8.64 111.42 L8.64
						 106.38 C8.64 106.18 8.48 106.02 8.28 106.02 L1.08 106.02 C0.88 106.02 0.72 106.18 0.72 106.38 L0.72 111.42
						 C0.72 111.62 0.88 111.78 1.08 111.78 L8.28 111.78 C8.48 111.78 8.64 111.62 8.64 111.42 ZM5.76 103.98 C5.73
						 103.52 5.25 103.14 4.68 103.14 C4.1 103.14 3.63 103.54 3.61 104.05 L3.6 104.05 L3.6 105.3 L5.76 105.3 L5.76
						 103.98 ZM2.16 103.94 C2.16 103.94 2.16 104.59 2.16 105.3 L2.88 105.3 C2.88 104.59 2.88 103.94 2.88 103.94
						 L2.89 104.02 C2.93 103.12 3.72 102.42 4.68 102.42 C5.64 102.42 6.43 103.11 6.48 103.94 C6.48 103.94 6.48
						 104.59 6.48 105.3 L7.2 105.3 C7.2 104.59 7.2 103.94 7.2 103.94 C7.13 102.7 6.03 101.7 4.68 101.7 C3.33 101.7
						 2.23 102.7 2.17 103.98 L2.16 103.94 ZM8.28 105.3 C8.88 105.3 9.36 105.78 9.36 106.38 L9.36 111.42 C9.36
						 112.02 8.88 112.5 8.28 112.5 L1.08 112.5 C0.48 112.5 0 112.02 0 111.42 L0 106.38 C0 105.78 0.48 105.3 1.08
						 105.3 L1.44 105.3 L1.44 103.94 L1.45 103.94 C1.53 102.29 2.94 100.98 4.68 100.98 C6.42 100.98 7.83 102.29
						 7.91 103.94 L7.92 103.94 L7.92 105.3 L8.28 105.3 Z" class="st21"/>
		</g>
	</g>
</svg>
